<svg width="32" height="20" viewBox="0 0 32 20" fill="none" xmlns="http://www.w3.org/2000/svg">
<path d="M8.89473 7.45458C8.89473 7.83743 8.93635 8.14784 9.00919 8.37548C9.09243 8.60312 9.19648 8.85146 9.34215 9.12048C9.39417 9.20326 9.41499 9.28604 9.41499 9.35847C9.41499 9.46194 9.35256 9.56542 9.21729 9.66889L8.56177 10.1035C8.46813 10.1656 8.37448 10.1966 8.29124 10.1966C8.18719 10.1966 8.08314 10.1449 7.97909 10.0517C7.83342 9.89653 7.70856 9.73097 7.60451 9.56542C7.50046 9.38951 7.39641 9.19291 7.28195 8.95493C6.47036 9.90687 5.45066 10.3828 4.22287 10.3828C3.34885 10.3828 2.65171 10.1345 2.14186 9.63785C1.63201 9.14118 1.37189 8.47895 1.37189 7.65118C1.37189 6.77166 1.68404 6.0577 2.31875 5.51964C2.95345 4.98159 3.79626 4.71256 4.86798 4.71256C5.22175 4.71256 5.58593 4.7436 5.97092 4.79534C6.3559 4.84707 6.75129 4.92985 7.1675 5.02298V4.26763C7.1675 3.48124 7.00102 2.93283 6.67846 2.61207C6.3455 2.29131 5.78363 2.1361 4.98244 2.1361C4.61826 2.1361 4.24368 2.17749 3.85869 2.27061C3.47371 2.36374 3.09912 2.47756 2.73495 2.62242C2.56847 2.69485 2.44361 2.73624 2.37077 2.75693C2.29794 2.77763 2.24591 2.78797 2.20429 2.78797C2.05862 2.78797 1.98578 2.6845 1.98578 2.46721V1.96019C1.98578 1.79464 2.00659 1.67047 2.05862 1.59804C2.11065 1.52561 2.20429 1.45318 2.34996 1.38075C2.71414 1.1945 3.15115 1.03929 3.661 0.915122C4.17084 0.780608 4.71191 0.718525 5.28418 0.718525C6.52238 0.718525 7.42762 0.9979 8.0103 1.55665C8.58258 2.1154 8.87392 2.96388 8.87392 4.10207V7.45458H8.89473ZM4.67029 9.02736C5.01365 9.02736 5.36742 8.96527 5.74201 8.84111C6.11659 8.71694 6.44955 8.4893 6.73048 8.17888C6.89697 7.98229 7.02183 7.765 7.08426 7.51666C7.14669 7.26833 7.18831 6.96826 7.18831 6.61645V6.18187C6.88656 6.10944 6.564 6.04735 6.23104 6.00596C5.89808 5.96458 5.57552 5.94388 5.25297 5.94388C4.55583 5.94388 4.04598 6.07839 3.70262 6.35777C3.35925 6.63715 3.19277 7.03034 3.19277 7.5477C3.19277 8.03402 3.31763 8.39618 3.57776 8.64451C3.82748 8.90319 4.19165 9.02736 4.67029 9.02736ZM13.0255 10.1449C12.8382 10.1449 12.7134 10.1138 12.6301 10.0414C12.5469 9.9793 12.4741 9.83444 12.4116 9.63785L9.96645 1.63943C9.90402 1.43248 9.87281 1.29797 9.87281 1.22554C9.87281 1.05998 9.95605 0.966858 10.1225 0.966858H11.1422C11.3399 0.966858 11.4752 0.9979 11.548 1.07033C11.6313 1.13241 11.6937 1.27728 11.7561 1.47387L13.5042 8.32375L15.1274 1.47387C15.1794 1.26693 15.2418 1.13241 15.325 1.07033C15.4083 1.00825 15.554 0.966858 15.7413 0.966858H16.5737C16.7713 0.966858 16.9066 0.9979 16.9899 1.07033C17.0731 1.13241 17.1459 1.27728 17.1876 1.47387L18.8315 8.40652L20.6316 1.47387C20.694 1.26693 20.7669 1.13241 20.8397 1.07033C20.923 1.00825 21.0582 0.966858 21.2455 0.966858H22.2132C22.3797 0.966858 22.4733 1.04964 22.4733 1.22554C22.4733 1.27728 22.4629 1.32901 22.4525 1.3911C22.4421 1.45318 22.4213 1.53596 22.3797 1.64978L19.8721 9.64819C19.8096 9.85514 19.7368 9.98965 19.6535 10.0517C19.5703 10.1138 19.435 10.1552 19.2582 10.1552H18.3633C18.1656 10.1552 18.0304 10.1242 17.9471 10.0517C17.8639 9.9793 17.791 9.84479 17.7494 9.63785L16.1366 2.96388L14.5343 9.6275C14.4822 9.83444 14.4198 9.96896 14.3366 10.0414C14.2533 10.1138 14.1077 10.1449 13.9204 10.1449H13.0255ZM26.396 10.4242C25.855 10.4242 25.3139 10.3622 24.7936 10.238C24.2734 10.1138 23.8676 9.9793 23.5971 9.8241C23.4306 9.73097 23.3161 9.6275 23.2745 9.53437C23.2329 9.44125 23.2121 9.33778 23.2121 9.24465V8.71694C23.2121 8.49965 23.2953 8.39618 23.4514 8.39618C23.5138 8.39618 23.5762 8.40652 23.6387 8.42722C23.7011 8.44791 23.7948 8.4893 23.8988 8.53069C24.2526 8.6859 24.6376 8.81007 25.0434 8.89284C25.4596 8.97562 25.8654 9.01701 26.2816 9.01701C26.9371 9.01701 27.4469 8.90319 27.8007 8.67555C28.1545 8.44791 28.3418 8.1168 28.3418 7.69256C28.3418 7.40284 28.2481 7.16486 28.0608 6.96826C27.8735 6.77166 27.5198 6.59576 27.0099 6.4302L25.5012 5.96458C24.7416 5.72659 24.1797 5.37478 23.8364 4.90916C23.493 4.45388 23.3161 3.94686 23.3161 3.40881C23.3161 2.97422 23.4098 2.59138 23.5971 2.26026C23.7843 1.92915 24.0341 1.63943 24.3462 1.41179C24.6584 1.1738 25.0121 0.9979 25.4283 0.873733C25.8445 0.749566 26.2816 0.69783 26.7394 0.69783C26.9683 0.69783 27.2076 0.708177 27.4365 0.739219C27.6758 0.770261 27.8943 0.81165 28.1128 0.853039C28.3209 0.904775 28.5186 0.956511 28.7059 1.01859C28.8932 1.08068 29.0389 1.14276 29.1429 1.20484C29.2886 1.28762 29.3927 1.3704 29.4551 1.46353C29.5175 1.5463 29.5487 1.66012 29.5487 1.80498V2.29131C29.5487 2.5086 29.4655 2.62242 29.3094 2.62242C29.2262 2.62242 29.0909 2.58103 28.914 2.49825C28.3209 2.22922 27.655 2.09471 26.9163 2.09471C26.3232 2.09471 25.855 2.18783 25.5324 2.38443C25.2098 2.58103 25.0434 2.8811 25.0434 3.30533C25.0434 3.59506 25.1474 3.84339 25.3555 4.03999C25.5636 4.23659 25.9486 4.43318 26.5001 4.60909L27.9776 5.07471C28.7267 5.3127 29.2678 5.64381 29.5904 6.06805C29.9129 6.49228 30.069 6.9786 30.069 7.51666C30.069 7.96159 29.9753 8.36513 29.7985 8.71694C29.6112 9.06875 29.3615 9.37916 29.0389 9.6275C28.7163 9.88618 28.3314 10.0724 27.8839 10.2069C27.4157 10.3518 26.9267 10.4242 26.396 10.4242Z" fill="#252F3E"/>
<path fill-rule="evenodd" clip-rule="evenodd" d="M28.3625 15.453C24.9393 17.9674 19.9657 19.3022 15.6892 19.3022C9.69589 19.3022 4.29568 17.0982 0.216905 13.4353C-0.105651 13.1455 0.18569 12.7523 0.570676 12.98C4.98241 15.5254 10.4242 17.0671 16.0534 17.0671C19.8512 17.0671 24.0236 16.2808 27.8631 14.6666C28.4354 14.4079 28.9244 15.0391 28.3625 15.453Z" fill="#FF9900"/>
<path fill-rule="evenodd" clip-rule="evenodd" d="M29.7881 13.8388C29.351 13.28 26.8955 13.5698 25.7821 13.7043C25.4492 13.7457 25.3972 13.4559 25.6989 13.2387C27.655 11.8728 30.8702 12.266 31.2447 12.7213C31.6193 13.1869 31.1407 16.3842 29.3094 17.9156C29.0285 18.1536 28.758 18.0294 28.8828 17.719C29.299 16.6946 30.2251 14.3872 29.7881 13.8388Z" fill="#FF9900"/>
</svg>
