<svg width="51" height="50" viewBox="0 0 51 50" fill="none" xmlns="http://www.w3.org/2000/svg">
<path d="M47.8532 33.4002C48.8159 30.8026 49.3418 27.993 49.3418 25.0605C49.3418 11.8057 38.5966 1.06055 25.3418 1.06055C12.087 1.06055 1.3418 11.8057 1.3418 25.0605C1.3418 38.3154 12.087 49.0605 25.3418 49.0605C32.0472 49.0605 38.1103 46.3107 42.465 41.8771" stroke="#FF15A2" stroke-width="1.5"/>
<mask id="path-2-inside-1_194_147" fill="white">
<path fill-rule="evenodd" clip-rule="evenodd" d="M11.8862 22.6536L11.8862 28.3045L15.6774 28.3045C15.8612 28.9661 16.108 29.6015 16.4108 30.2038L13.7194 32.8952L17.7152 36.8909L20.2136 34.3925C21.0673 34.9312 22.0039 35.3506 22.9998 35.6273L22.9998 39.5615L28.6506 39.5615L28.6506 35.6274C29.3125 35.4436 29.9481 35.1967 30.5506 34.8937L33.2421 37.5852L37.2378 33.5894L34.739 31.0906C35.2775 30.2368 35.6968 29.3003 35.9735 28.3045L39.7642 28.3045L39.7642 22.6536L35.9732 22.6536C35.6965 21.6577 35.2772 20.7213 34.7385 19.8676L37.2377 17.3684L33.2419 13.3727L30.5498 16.0648C29.9475 15.762 29.3122 15.5152 28.6506 15.3315L28.6506 11.397L22.9998 11.397L22.9998 15.3316C22.0041 15.6082 21.0679 16.0275 20.2143 16.5659L17.7154 14.0669L13.7196 18.0627L16.4112 20.7543C16.1083 21.3566 15.8615 21.992 15.6777 22.6536L11.8862 22.6536ZM32.0756 25.479C32.0756 22.0271 29.2773 19.2289 25.8255 19.2289C22.3736 19.2289 19.5753 22.0271 19.5753 25.479C19.5753 28.9309 22.3736 31.7291 25.8255 31.7291C29.2773 31.7291 32.0756 28.9309 32.0756 25.479Z"/>
</mask>
<path d="M11.8862 28.3045L10.3862 28.3045L10.3862 29.8045L11.8862 29.8045L11.8862 28.3045ZM11.8862 22.6536L11.8862 21.1536L10.3862 21.1536L10.3862 22.6536L11.8862 22.6536ZM15.6774 28.3045L17.1227 27.903L16.8175 26.8045L15.6774 26.8045L15.6774 28.3045ZM16.4108 30.2038L17.4715 31.2644L18.2377 30.4982L17.7509 29.53L16.4108 30.2038ZM13.7194 32.8952L12.6588 31.8345L11.5981 32.8952L12.6588 33.9558L13.7194 32.8952ZM17.7152 36.8909L16.6545 37.9516L17.7152 39.0122L18.7759 37.9516L17.7152 36.8909ZM20.2136 34.3925L21.014 33.1239L20.0004 32.4844L19.1529 33.3319L20.2136 34.3925ZM22.9998 35.6273L24.4998 35.6273L24.4998 34.4872L23.4013 34.182L22.9998 35.6273ZM22.9998 39.5615L21.4998 39.5615L21.4998 41.0615L22.9998 41.0615L22.9998 39.5615ZM28.6506 39.5615L28.6506 41.0615L30.1506 41.0615L30.1506 39.5615L28.6506 39.5615ZM28.6506 35.6274L28.2491 34.1822L27.1506 34.4873L27.1506 35.6274L28.6506 35.6274ZM30.5506 34.8937L31.6113 33.833L30.8449 33.0667L29.8767 33.5536L30.5506 34.8937ZM33.2421 37.5852L32.1814 38.6458L33.2421 39.7065L34.3027 38.6458L33.2421 37.5852ZM37.2378 33.5894L38.2985 34.6501L39.3592 33.5894L38.2985 32.5287L37.2378 33.5894ZM34.739 31.0906L33.4703 30.2902L32.8309 31.3038L33.6783 32.1512L34.739 31.0906ZM35.9735 28.3045L35.9735 26.8045L34.8334 26.8045L34.5282 27.903L35.9735 28.3045ZM39.7642 28.3045L39.7642 29.8045L41.2642 29.8045L41.2642 28.3045L39.7642 28.3045ZM39.7642 22.6536L41.2642 22.6536L41.2642 21.1536L39.7642 21.1536L39.7642 22.6536ZM35.9732 22.6536L34.528 23.0552L34.8332 24.1536L35.9732 24.1536L35.9732 22.6536ZM34.7385 19.8676L33.6779 18.8069L32.8304 19.6544L33.4699 20.668L34.7385 19.8676ZM37.2377 17.3684L38.2983 18.4291L39.359 17.3684L38.2983 16.3078L37.2377 17.3684ZM33.2419 13.3727L34.3026 12.312L33.2419 11.2514L32.1813 12.312L33.2419 13.3727ZM30.5498 16.0648L29.876 17.4049L30.8442 17.8917L31.6105 17.1254L30.5498 16.0648ZM28.6506 15.3315L27.1506 15.3315L27.1506 16.4716L28.2491 16.7767L28.6506 15.3315ZM28.6506 11.397L30.1506 11.397L30.1506 9.89703L28.6506 9.89703L28.6506 11.397ZM22.9998 11.397L22.9998 9.89703L21.4998 9.89703L21.4998 11.397L22.9998 11.397ZM22.9998 15.3316L23.4013 16.7769L24.4998 16.4716L24.4998 15.3316L22.9998 15.3316ZM20.2143 16.5659L19.1537 17.6266L20.0011 18.474L21.0146 17.8346L20.2143 16.5659ZM17.7154 14.0669L18.776 13.0063L17.7154 11.9456L16.6547 13.0063L17.7154 14.0669ZM13.7196 18.0627L12.6589 17.002L11.5983 18.0627L12.6589 19.1234L13.7196 18.0627ZM16.4112 20.7543L17.7513 21.4282L18.2382 20.46L17.4719 19.6936L16.4112 20.7543ZM15.6777 22.6536L15.6777 24.1536L16.8177 24.1536L17.1229 23.0552L15.6777 22.6536ZM13.3862 28.3045L13.3862 22.6536L10.3862 22.6536L10.3862 28.3045L13.3862 28.3045ZM15.6774 26.8045L11.8862 26.8045L11.8862 29.8045L15.6774 29.8045L15.6774 26.8045ZM17.7509 29.53C17.4914 29.0138 17.2801 28.4695 17.1227 27.903L14.2322 28.7059C14.4423 29.4626 14.7245 30.1891 15.0707 30.8776L17.7509 29.53ZM14.7801 33.9558L17.4715 31.2644L15.3501 29.1431L12.6588 31.8345L14.7801 33.9558ZM18.7759 35.8303L14.7801 31.8345L12.6588 33.9558L16.6545 37.9516L18.7759 35.8303ZM19.1529 33.3319L16.6545 35.8303L18.7759 37.9516L21.2743 35.4532L19.1529 33.3319ZM23.4013 34.182C22.5486 33.9451 21.7462 33.5859 21.014 33.1239L19.4132 35.6611C20.3885 36.2765 21.4591 36.756 22.5982 37.0725L23.4013 34.182ZM24.4998 39.5615L24.4998 35.6273L21.4998 35.6273L21.4998 39.5615L24.4998 39.5615ZM28.6506 38.0615L22.9998 38.0615L22.9998 41.0615L28.6506 41.0615L28.6506 38.0615ZM27.1506 35.6274L27.1506 39.5615L30.1506 39.5615L30.1506 35.6274L27.1506 35.6274ZM29.8767 33.5536C29.3603 33.8133 28.8159 34.0247 28.2491 34.1822L29.0521 37.0727C29.809 36.8624 30.5358 36.5801 31.2245 36.2338L29.8767 33.5536ZM34.3027 36.5245L31.6113 33.833L29.4899 35.9544L32.1814 38.6458L34.3027 36.5245ZM36.1772 32.5287L32.1814 36.5245L34.3027 38.6458L38.2985 34.6501L36.1772 32.5287ZM33.6783 32.1512L36.1772 34.6501L38.2985 32.5287L35.7997 30.0299L33.6783 32.1512ZM34.5282 27.903C34.2913 28.7557 33.9322 29.5581 33.4703 30.2902L36.0077 31.8909C36.6229 30.9156 37.1023 29.845 37.4188 28.7059L34.5282 27.903ZM39.7642 26.8045L35.9735 26.8045L35.9735 29.8045L39.7642 29.8045L39.7642 26.8045ZM38.2642 22.6536L38.2642 28.3045L41.2642 28.3045L41.2642 22.6536L38.2642 22.6536ZM35.9732 24.1536L39.7642 24.1536L39.7642 21.1536L35.9732 21.1536L35.9732 24.1536ZM33.4699 20.668C33.9319 21.4001 34.2911 22.2025 34.528 23.0552L37.4185 22.252C37.102 21.113 36.6225 20.0424 36.0071 19.0672L33.4699 20.668ZM36.177 16.3078L33.6779 18.8069L35.7992 20.9283L38.2983 18.4291L36.177 16.3078ZM32.1813 14.4333L36.177 18.4291L38.2983 16.3078L34.3026 12.312L32.1813 14.4333ZM31.6105 17.1254L34.3026 14.4333L32.1813 12.312L29.4891 15.0041L31.6105 17.1254ZM28.2491 16.7767C28.8156 16.9341 29.3598 17.1454 29.876 17.4049L31.2236 14.7246C30.5352 14.3785 29.8087 14.0964 29.0521 13.8862L28.2491 16.7767ZM27.1506 11.397L27.1506 15.3315L30.1506 15.3315L30.1506 11.397L27.1506 11.397ZM22.9998 12.897L28.6506 12.897L28.6506 9.89703L22.9998 9.89703L22.9998 12.897ZM24.4998 15.3316L24.4998 11.397L21.4998 11.397L21.4998 15.3316L24.4998 15.3316ZM21.0146 17.8346C21.7466 17.3728 22.5488 17.0137 23.4013 16.7769L22.5982 13.8864C21.4594 14.2028 20.3891 14.6821 19.414 15.2972L21.0146 17.8346ZM16.6547 15.1276L19.1537 17.6266L21.275 15.5052L18.776 13.0063L16.6547 15.1276ZM14.7802 19.1234L18.776 15.1276L16.6547 13.0063L12.6589 17.002L14.7802 19.1234ZM17.4719 19.6936L14.7802 17.002L12.6589 19.1234L15.3505 21.815L17.4719 19.6936ZM17.1229 23.0552C17.2803 22.4886 17.4917 21.9444 17.7513 21.4282L15.0711 20.0804C14.7249 20.7688 14.4427 21.4954 14.2324 22.252L17.1229 23.0552ZM11.8862 24.1536L15.6777 24.1536L15.6777 21.1536L11.8862 21.1536L11.8862 24.1536ZM25.8255 20.7289C28.4489 20.7289 30.5756 22.8556 30.5756 25.479L33.5756 25.479C33.5756 21.1987 30.1058 17.7289 25.8255 17.7289L25.8255 20.7289ZM21.0753 25.479C21.0753 22.8556 23.202 20.7289 25.8255 20.7289L25.8255 17.7289C21.5452 17.7289 18.0753 21.1987 18.0753 25.479L21.0753 25.479ZM25.8255 30.2291C23.202 30.2291 21.0753 28.1024 21.0753 25.479L18.0753 25.479C18.0753 29.7593 21.5452 33.2291 25.8255 33.2291L25.8255 30.2291ZM30.5756 25.479C30.5756 28.1024 28.4489 30.2291 25.8255 30.2291L25.8255 33.2291C30.1058 33.2291 33.5756 29.7593 33.5756 25.479L30.5756 25.479Z" fill="#FF15A2" mask="url(#path-2-inside-1_194_147)"/>
<path d="M23.8752 22.4473L28.1634 25.4793L23.8752 28.5112L23.8752 22.4473Z" stroke="#FF15A2"/>
</svg>
