<svg width="50" height="50" viewBox="0 0 50 50" fill="none" xmlns="http://www.w3.org/2000/svg">
<path d="M47.2899 33.2434C48.2525 30.6458 48.7784 27.8362 48.7784 24.9038C48.7784 11.649 38.0333 0.903809 24.7784 0.903809C11.5236 0.903809 0.778442 11.649 0.778442 24.9038C0.778442 38.1586 11.5236 48.9038 24.7784 48.9038C31.4838 48.9038 37.547 46.1539 41.9016 41.7204" stroke="#FF0000" stroke-width="1.5"/>
<mask id="path-2-inside-1_194_65" fill="white">
<path fill-rule="evenodd" clip-rule="evenodd" d="M14.2925 14.5158L11.8939 17.0647L13.604 18.674C13.406 19.0505 13.2476 19.4418 13.1286 19.8421L10.772 19.9137L10.8782 23.4121L13.066 23.3456C13.1826 23.7968 13.3481 24.2376 13.5622 24.6596L11.791 26.5418L14.3398 28.9404L15.934 27.2464C16.4341 27.5584 16.9665 27.7957 17.5156 27.9591L17.5872 30.3157L21.0856 30.2095L21.0191 28.0216C21.6244 27.8651 22.211 27.6207 22.7585 27.289L24.4683 28.898L26.8669 26.3492L25.1571 24.7401C25.455 24.1735 25.6633 23.5732 25.7828 22.9595L27.9706 22.8931L27.8644 19.3947L25.5078 19.4663C25.3115 18.9281 25.0422 18.4111 24.7006 17.9309L26.2948 16.2368L23.746 13.8381L21.9746 15.7204C21.5405 15.5323 21.0904 15.3939 20.633 15.3049L20.5666 13.1171L17.0682 13.2233L17.1398 15.5798C16.7475 15.7229 16.3664 15.9048 16.0026 16.1252L14.2925 14.5158ZM21.0246 23.2543C21.8791 22.3463 21.8357 20.9175 20.9277 20.063C20.0197 19.2085 18.5909 19.2519 17.7364 20.1599C16.8819 21.0679 16.9253 22.4967 17.8333 23.3512C18.7413 24.2057 20.1701 24.1623 21.0246 23.2543Z"/>
</mask>
<path d="M11.8939 17.0647L11.1657 16.3794L10.4803 17.1076L11.2086 17.7929L11.8939 17.0647ZM14.2925 14.5158L14.9779 13.7876L14.2496 13.1023L13.5643 13.8305L14.2925 14.5158ZM13.604 18.674L14.4891 19.1394L14.8428 18.4666L14.2893 17.9457L13.604 18.674ZM13.1286 19.8421L13.1589 20.8417L13.8811 20.8197L14.0871 20.1272L13.1286 19.8421ZM10.772 19.9137L10.7417 18.9141L9.74213 18.9445L9.77248 19.944L10.772 19.9137ZM10.8782 23.4121L9.87869 23.4424L9.90904 24.4419L10.9086 24.4116L10.8782 23.4121ZM13.066 23.3456L14.0342 23.0954L13.8343 22.3219L13.0357 22.3461L13.066 23.3456ZM13.5622 24.6596L14.2905 25.3449L14.7718 24.8335L14.454 24.2071L13.5622 24.6596ZM11.791 26.5418L11.0627 25.8565L10.3774 26.5847L11.1056 27.27L11.791 26.5418ZM14.3398 28.9404L13.6545 29.6687L14.3827 30.354L15.068 29.6258L14.3398 28.9404ZM15.934 27.2464L16.4632 26.3979L15.7676 25.9641L15.2057 26.5611L15.934 27.2464ZM17.5156 27.9591L18.5152 27.9287L18.4932 27.2066L17.8007 27.0006L17.5156 27.9591ZM17.5872 30.3157L16.5876 30.346L16.618 31.3456L17.6175 31.3152L17.5872 30.3157ZM21.0856 30.2095L21.1159 31.209L22.1154 31.1787L22.0851 30.1791L21.0856 30.2095ZM21.0191 28.0216L20.7689 27.0534L19.9953 27.2533L20.0196 28.0519L21.0191 28.0216ZM22.7585 27.289L23.4438 26.5607L22.8903 26.0399L22.2403 26.4337L22.7585 27.289ZM24.4683 28.898L23.783 29.6263L24.5112 30.3116L25.1965 29.5834L24.4683 28.898ZM26.8669 26.3492L27.5952 27.0345L28.2805 26.3063L27.5523 25.621L26.8669 26.3492ZM25.1571 24.7401L24.272 24.2748L23.9183 24.9475L24.4718 25.4684L25.1571 24.7401ZM25.7828 22.9595L25.7524 21.96L24.9538 21.9842L24.8012 22.7685L25.7828 22.9595ZM27.9706 22.8931L28.001 23.8927L29.0005 23.8623L28.9701 22.8628L27.9706 22.8931ZM27.8644 19.3947L28.8639 19.3644L28.8336 18.3648L27.834 18.3952L27.8644 19.3947ZM25.5078 19.4663L24.5684 19.809L24.816 20.4877L25.5382 20.4658L25.5078 19.4663ZM24.7006 17.9309L23.9723 17.2455L23.4105 17.8425L23.8857 18.5105L24.7006 17.9309ZM26.2948 16.2368L27.023 16.9221L27.7084 16.1939L26.9801 15.5085L26.2948 16.2368ZM23.746 13.8381L24.4313 13.1099L23.703 12.4246L23.0177 13.1528L23.746 13.8381ZM21.9746 15.7204L21.5771 16.638L22.2215 16.9172L22.7028 16.4057L21.9746 15.7204ZM20.633 15.3049L19.6335 15.3352L19.6577 16.1338L20.442 16.2864L20.633 15.3049ZM20.5666 13.1171L21.5662 13.0867L21.5358 12.0872L20.5363 12.1176L20.5666 13.1171ZM17.0682 13.2233L17.0379 12.2238L16.0383 12.2541L16.0687 13.2537L17.0682 13.2233ZM17.1398 15.5798L17.4825 16.5192L18.1612 16.2716L18.1393 15.5494L17.1398 15.5798ZM16.0026 16.1252L15.3173 16.8534L15.8708 17.3743L16.5208 16.9804L16.0026 16.1252ZM12.6221 17.75L15.0208 15.2012L13.5643 13.8305L11.1657 16.3794L12.6221 17.75ZM14.2893 17.9457L12.5792 16.3364L11.2086 17.7929L12.9187 19.4022L14.2893 17.9457ZM14.0871 20.1272C14.1878 19.7886 14.3218 19.4576 14.4891 19.1394L12.7189 18.2086C12.4903 18.6433 12.3075 19.0951 12.1701 19.557L14.0871 20.1272ZM10.8024 20.9132L13.1589 20.8417L13.0982 18.8426L10.7417 18.9141L10.8024 20.9132ZM11.8778 23.3817L11.7716 19.8833L9.77248 19.944L9.87869 23.4424L11.8778 23.3817ZM13.0357 22.3461L10.8479 22.4125L10.9086 24.4116L13.0964 24.3452L13.0357 22.3461ZM14.454 24.2071C14.273 23.8504 14.133 23.4774 14.0342 23.0954L12.0978 23.5959C12.2323 24.1162 12.4233 24.6249 12.6705 25.1121L14.454 24.2071ZM12.5192 27.2271L14.2905 25.3449L12.834 23.9743L11.0627 25.8565L12.5192 27.2271ZM15.0251 28.2122L12.4763 25.8136L11.1056 27.27L13.6545 29.6687L15.0251 28.2122ZM15.2057 26.5611L13.6116 28.2551L15.068 29.6258L16.6622 27.9318L15.2057 26.5611ZM17.8007 27.0006C17.3362 26.8624 16.886 26.6617 16.4632 26.3979L15.4048 28.0949C15.9821 28.455 16.5968 28.7291 17.2305 28.9176L17.8007 27.0006ZM18.5867 30.2853L18.5152 27.9287L16.5161 27.9894L16.5876 30.346L18.5867 30.2853ZM21.0552 29.2099L17.5568 29.3161L17.6175 31.3152L21.1159 31.209L21.0552 29.2099ZM20.0196 28.0519L20.086 30.2398L22.0851 30.1791L22.0187 27.9912L20.0196 28.0519ZM22.2403 26.4337C21.7775 26.7141 21.2814 26.9209 20.7689 27.0534L21.2694 28.9897C21.9674 28.8093 22.6445 28.5273 23.2767 28.1442L22.2403 26.4337ZM25.1536 28.1698L23.4438 26.5607L22.0732 28.0172L23.783 29.6263L25.1536 28.1698ZM26.1387 25.6639L23.7401 28.2127L25.1965 29.5834L27.5952 27.0345L26.1387 25.6639ZM24.4718 25.4684L26.1816 27.0774L27.5523 25.621L25.8424 24.0119L24.4718 25.4684ZM24.8012 22.7685C24.7001 23.2881 24.5238 23.7958 24.272 24.2748L26.0422 25.2055C26.3862 24.5512 26.6266 23.8583 26.7644 23.1506L24.8012 22.7685ZM27.9403 21.8936L25.7524 21.96L25.8131 23.9591L28.001 23.8927L27.9403 21.8936ZM26.8649 19.4251L26.9711 22.9235L28.9701 22.8628L28.8639 19.3644L26.8649 19.4251ZM25.5382 20.4658L27.8947 20.3943L27.834 18.3952L25.4775 18.4667L25.5382 20.4658ZM23.8857 18.5105C24.1746 18.9166 24.4023 19.3537 24.5684 19.809L26.4472 19.1236C26.2206 18.5024 25.9098 17.9056 25.5154 17.3512L23.8857 18.5105ZM25.5666 15.5515L23.9723 17.2455L25.4288 18.6162L27.023 16.9221L25.5666 15.5515ZM23.0606 14.5664L25.6095 16.965L26.9801 15.5085L24.4313 13.1099L23.0606 14.5664ZM22.7028 16.4057L24.4742 14.5235L23.0177 13.1528L21.2464 15.0351L22.7028 16.4057ZM20.442 16.2864C20.8293 16.3618 21.21 16.479 21.5771 16.638L22.3721 14.8028C21.8709 14.5857 21.3516 14.426 20.8241 14.3233L20.442 16.2864ZM19.5671 13.1474L19.6335 15.3352L21.6326 15.2745L21.5662 13.0867L19.5671 13.1474ZM17.0986 14.2228L20.597 14.1166L20.5363 12.1176L17.0379 12.2238L17.0986 14.2228ZM18.1393 15.5494L18.0678 13.193L16.0687 13.2537L16.1402 15.6101L18.1393 15.5494ZM16.5208 16.9804C16.8284 16.7941 17.1506 16.6403 17.4825 16.5192L16.7971 14.6403C16.3443 14.8055 15.9045 15.0154 15.4844 15.2699L16.5208 16.9804ZM13.6072 15.2441L15.3173 16.8534L16.688 15.3969L14.9779 13.7876L13.6072 15.2441ZM20.2424 20.7913C20.7482 21.2673 20.7724 22.0632 20.2964 22.569L21.7528 23.9396C22.9858 22.6294 22.9232 20.5678 21.613 19.3348L20.2424 20.7913ZM18.4647 20.8452C18.9407 20.3394 19.7366 20.3152 20.2424 20.7913L21.613 19.3348C20.3028 18.1018 18.2412 18.1644 17.0082 19.4746L18.4647 20.8452ZM18.5186 22.623C18.0128 22.147 17.9887 21.351 18.4647 20.8452L17.0082 19.4746C15.7752 20.7848 15.8378 22.8465 17.148 24.0794L18.5186 22.623ZM20.2964 22.569C19.8204 23.0748 19.0244 23.099 18.5186 22.623L17.148 24.0794C18.4582 25.3124 20.5199 25.2498 21.7528 23.9396L20.2964 22.569Z" fill="#FF0000" mask="url(#path-2-inside-1_194_65)"/>
<mask id="path-4-inside-2_194_65" fill="white">
<path fill-rule="evenodd" clip-rule="evenodd" d="M29.9788 24.5524L27.754 25.9286L28.6773 27.4212C28.4616 27.6547 28.2715 27.9067 28.1081 28.1726L26.3929 27.7684L25.7929 30.3146L27.3852 30.6899C27.3821 31.0382 27.4163 31.3885 27.4893 31.7346L25.8464 32.7508L27.2225 34.9756L28.7011 34.061C29.0019 34.3829 29.3403 34.6573 29.7052 34.8814L29.301 36.5966L31.8472 37.1967L32.2225 35.6043C32.6897 35.6084 33.1605 35.5455 33.62 35.4119L34.5431 36.9043L36.7679 35.5281L35.8447 34.0357C36.1694 33.6843 36.436 33.2911 36.6409 32.8712L38.2333 33.2465L38.8334 30.7002L37.1182 30.296C37.0805 29.8695 36.9861 29.4442 36.8324 29.0313L38.3111 28.1167L36.9349 25.8919L35.292 26.9082C35.0149 26.6884 34.7168 26.5014 34.4038 26.3486L34.7791 24.7563L32.2328 24.1562L31.8286 25.8713C31.5177 25.8988 31.2074 25.9563 30.9021 26.0451L29.9788 24.5524ZM33.1487 32.1636C33.9412 31.6733 34.1863 30.6334 33.6961 29.8408C33.2058 29.0483 32.1659 28.8032 31.3733 29.2934C30.5808 29.7837 30.3357 30.8236 30.8259 31.6162C31.3162 32.4087 32.3561 32.6538 33.1487 32.1636Z"/>
</mask>
<path d="M27.754 25.9286L27.228 25.0781L26.3775 25.6042L26.9036 26.4546L27.754 25.9286ZM29.9788 24.5524L30.8293 24.0264L30.3032 23.1759L29.4528 23.702L29.9788 24.5524ZM28.6773 27.4212L29.4118 28.0998L29.9276 27.5416L29.5278 26.8952L28.6773 27.4212ZM28.1081 28.1726L27.8787 29.146L28.582 29.3117L28.9602 28.6961L28.1081 28.1726ZM26.3929 27.7684L26.6223 26.7951L25.649 26.5657L25.4196 27.539L26.3929 27.7684ZM25.7929 30.3146L24.8195 30.0853L24.5901 31.0586L25.5635 31.288L25.7929 30.3146ZM27.3852 30.6899L28.3852 30.6988L28.3922 29.8999L27.6146 29.7166L27.3852 30.6899ZM27.4893 31.7346L28.0153 32.585L28.6126 32.2155L28.4678 31.5283L27.4893 31.7346ZM25.8464 32.7508L25.3203 31.9003L24.4699 32.4264L24.9959 33.2768L25.8464 32.7508ZM27.2225 34.9756L26.3721 35.5016L26.8981 36.3521L27.7486 35.826L27.2225 34.9756ZM28.7011 34.061L29.4319 33.3783L28.8723 32.7792L28.1751 33.2105L28.7011 34.061ZM29.7052 34.8814L30.6785 35.1108L30.8443 34.4076L30.2286 34.0294L29.7052 34.8814ZM29.301 36.5966L28.3276 36.3673L28.0982 37.3406L29.0716 37.57L29.301 36.5966ZM31.8472 37.1967L31.6178 38.1701L32.5912 38.3994L32.8205 37.4261L31.8472 37.1967ZM32.2225 35.6043L32.2313 34.6043L31.4324 34.5973L31.2492 35.3749L32.2225 35.6043ZM33.62 35.4119L34.4704 34.8858L34.0706 34.2394L33.3408 34.4516L33.62 35.4119ZM34.5431 36.9043L33.6927 37.4304L34.2187 38.2808L35.0692 37.7548L34.5431 36.9043ZM36.7679 35.5281L37.294 36.3786L38.1444 35.8525L37.6184 35.0021L36.7679 35.5281ZM35.8447 34.0357L35.1102 33.3571L34.5945 33.9154L34.9943 34.5617L35.8447 34.0357ZM36.6409 32.8712L36.8703 31.8979L36.0926 31.7146L35.7422 32.4326L36.6409 32.8712ZM38.2333 33.2465L38.0039 34.2198L38.9772 34.4492L39.2066 33.4759L38.2333 33.2465ZM38.8334 30.7002L39.8067 30.9296L40.0361 29.9563L39.0628 29.7269L38.8334 30.7002ZM37.1182 30.296L36.122 30.3839L36.1855 31.1036L36.8888 31.2694L37.1182 30.296ZM36.8324 29.0313L36.3063 28.1809L35.6091 28.6121L35.8953 29.3804L36.8324 29.0313ZM38.3111 28.1167L38.8371 28.9671L39.6876 28.4411L39.1615 27.5906L38.3111 28.1167ZM36.9349 25.8919L37.7854 25.3658L37.2593 24.5154L36.4089 25.0414L36.9349 25.8919ZM35.292 26.9082L34.6705 27.6916L35.2207 28.1281L35.818 27.7586L35.292 26.9082ZM34.4038 26.3486L33.4305 26.1192L33.2472 26.8969L33.9652 27.2473L34.4038 26.3486ZM34.7791 24.7563L35.7524 24.9857L35.9818 24.0123L35.0084 23.7829L34.7791 24.7563ZM32.2328 24.1562L32.4622 23.1829L31.4889 22.9535L31.2595 23.9268L32.2328 24.1562ZM31.8286 25.8713L31.9165 26.8675L32.6362 26.804L32.8019 26.1007L31.8286 25.8713ZM30.9021 26.0451L30.0517 26.5711L30.4515 27.2175L31.1813 27.0053L30.9021 26.0451ZM28.2801 26.779L30.5049 25.4029L29.4528 23.702L27.228 25.0781L28.2801 26.779ZM29.5278 26.8952L28.6045 25.4025L26.9036 26.4546L27.8269 27.9473L29.5278 26.8952ZM28.9602 28.6961C29.0899 28.4849 29.2407 28.285 29.4118 28.0998L27.9428 26.7426C27.6825 27.0244 27.4531 27.3284 27.2561 27.6492L28.9602 28.6961ZM26.1635 28.7417L27.8787 29.146L28.3375 27.1993L26.6223 26.7951L26.1635 28.7417ZM26.7662 30.544L27.3663 27.9978L25.4196 27.539L24.8195 30.0853L26.7662 30.544ZM27.6146 29.7166L26.0222 29.3413L25.5635 31.288L27.1558 31.6633L27.6146 29.7166ZM28.4678 31.5283C28.4099 31.2538 28.3827 30.9757 28.3852 30.6988L26.3852 30.6811C26.3815 31.1008 26.4227 31.5232 26.5108 31.9408L28.4678 31.5283ZM26.3724 33.6012L28.0153 32.585L26.9632 30.8841L25.3203 31.9003L26.3724 33.6012ZM28.073 34.4495L26.6968 32.2247L24.9959 33.2768L26.3721 35.5016L28.073 34.4495ZM28.1751 33.2105L26.6965 34.1251L27.7486 35.826L29.2272 34.9114L28.1751 33.2105ZM30.2286 34.0294C29.939 33.8514 29.6705 33.6337 29.4319 33.3783L27.9704 34.7436C28.3333 35.132 28.7417 35.4631 29.1817 35.7335L30.2286 34.0294ZM30.2743 36.826L30.6785 35.1108L28.7318 34.652L28.3276 36.3673L30.2743 36.826ZM32.0766 36.2234L29.5303 35.6233L29.0716 37.57L31.6178 38.1701L32.0766 36.2234ZM31.2492 35.3749L30.8739 36.9673L32.8205 37.4261L33.1958 35.8337L31.2492 35.3749ZM33.3408 34.4516C32.9764 34.5576 32.6028 34.6076 32.2313 34.6043L32.2137 36.6043C32.7767 36.6092 33.3446 36.5333 33.8992 36.3721L33.3408 34.4516ZM35.3936 36.3782L34.4704 34.8858L32.7695 35.9379L33.6927 37.4304L35.3936 36.3782ZM36.2419 34.6777L34.0171 36.0538L35.0692 37.7548L37.294 36.3786L36.2419 34.6777ZM34.9943 34.5617L35.9175 36.0542L37.6184 35.0021L36.6952 33.5096L34.9943 34.5617ZM35.7422 32.4326C35.5793 32.7664 35.3677 33.0784 35.1102 33.3571L36.5793 34.7143C36.9711 34.2901 37.2926 33.8158 37.5396 33.3098L35.7422 32.4326ZM38.4627 32.2732L36.8703 31.8979L36.4115 33.8446L38.0039 34.2198L38.4627 32.2732ZM37.86 30.4709L37.26 33.0171L39.2066 33.4759L39.8067 30.9296L37.86 30.4709ZM36.8888 31.2694L38.604 31.6736L39.0628 29.7269L37.3475 29.3227L36.8888 31.2694ZM35.8953 29.3804C36.0173 29.7079 36.0922 30.0453 36.122 30.3839L38.1143 30.2081C38.0689 29.6937 37.955 29.1804 37.7695 28.6823L35.8953 29.3804ZM37.785 27.2662L36.3063 28.1809L37.3584 29.8818L38.8371 28.9671L37.785 27.2662ZM36.0845 26.4179L37.4606 28.6427L39.1615 27.5906L37.7854 25.3658L36.0845 26.4179ZM35.818 27.7586L37.461 26.7423L36.4089 25.0414L34.7659 26.0577L35.818 27.7586ZM33.9652 27.2473C34.214 27.3687 34.4507 27.5173 34.6705 27.6916L35.9134 26.1247C35.5791 25.8595 35.2196 25.634 34.8424 25.4499L33.9652 27.2473ZM33.8057 24.5269L33.4305 26.1192L35.3771 26.578L35.7524 24.9857L33.8057 24.5269ZM32.0034 25.1295L34.5497 25.7296L35.0084 23.7829L32.4622 23.1829L32.0034 25.1295ZM32.8019 26.1007L33.2061 24.3856L31.2595 23.9268L30.8553 25.6419L32.8019 26.1007ZM31.1813 27.0053C31.4234 26.9349 31.6696 26.8892 31.9165 26.8675L31.7407 24.8752C31.3657 24.9083 30.9914 24.9777 30.6229 25.0849L31.1813 27.0053ZM29.1284 25.0785L30.0517 26.5711L31.7526 25.519L30.8293 24.0264L29.1284 25.0785ZM32.8456 30.3669C33.0453 30.6898 32.9455 31.1134 32.6226 31.3131L33.6747 33.014C34.937 32.2332 35.3273 30.577 34.5465 29.3148L32.8456 30.3669ZM31.8994 30.1439C32.2223 29.9442 32.6459 30.044 32.8456 30.3669L34.5465 29.3148C33.7658 28.0525 32.1095 27.6622 30.8473 28.443L31.8994 30.1439ZM31.6764 31.0901C31.4767 30.7672 31.5765 30.3436 31.8994 30.1439L30.8473 28.443C29.585 29.2237 29.1947 30.88 29.9755 32.1422L31.6764 31.0901ZM32.6226 31.3131C32.2997 31.5128 31.8761 31.413 31.6764 31.0901L29.9755 32.1422C30.7563 33.4045 32.4125 33.7948 33.6747 33.014L32.6226 31.3131Z" fill="#FF0000" mask="url(#path-4-inside-2_194_65)"/>
</svg>
