<svg width="32" height="24" viewBox="0 0 32 24" fill="none" xmlns="http://www.w3.org/2000/svg">
<path d="M31.2487 9.26512C31.1644 9.19811 30.3767 8.60335 28.7155 8.60335C28.2769 8.60527 27.8392 8.64289 27.4067 8.71586C27.0852 6.51222 25.2633 5.43782 25.1816 5.38962L24.7356 5.13239L24.4422 5.55573C24.0748 6.1244 23.8066 6.75129 23.6491 7.40975C23.3517 8.66766 23.5326 9.84916 24.1716 10.8592C23.4 11.2892 22.1622 11.3951 21.9117 11.4045H1.41832C0.883037 11.4052 0.448682 11.8378 0.445765 12.373C0.421861 14.1683 0.726032 15.9529 1.3433 17.639C2.04926 19.4904 3.09953 20.8541 4.46594 21.6886C5.99711 22.6264 8.48477 23.1622 11.3046 23.1622C12.5785 23.1662 13.85 23.0509 15.1025 22.8179C16.8435 22.4983 18.5187 21.8898 20.059 21.0175C21.3282 20.2825 22.4704 19.3475 23.4415 18.2485C25.0651 16.4106 26.0324 14.3636 26.7517 12.5445H27.0384C28.816 12.5445 29.9092 11.8331 30.512 11.237C30.9126 10.8568 31.2254 10.3937 31.4283 9.87999L31.5556 9.50759L31.2487 9.26512Z" fill="#2496ED"/>
<path d="M3.3179 10.8043H6.0641C6.19655 10.8043 6.30387 10.697 6.30387 10.5646V8.11841C6.30461 7.98596 6.19785 7.87803 6.06545 7.87729C6.06501 7.87729 6.06453 7.87729 6.0641 7.87729H3.3179C3.18545 7.87729 3.07812 7.98465 3.07812 8.11706V8.11841V10.5645C3.07812 10.697 3.18545 10.8043 3.3179 10.8043Z" fill="#2496ED"/>
<path d="M7.10231 10.8043H9.84851C9.98096 10.8043 10.0883 10.697 10.0883 10.5646V8.11841C10.089 7.98596 9.98227 7.87803 9.84982 7.87729C9.84938 7.87729 9.8489 7.87729 9.84847 7.87729H7.10227C6.96908 7.87729 6.86115 7.98522 6.86115 8.11841V10.5645C6.86193 10.6972 6.96965 10.8043 7.10231 10.8043Z" fill="#2496ED"/>
<path d="M10.9443 10.8043H13.6905C13.8229 10.8043 13.9303 10.697 13.9303 10.5646V8.11841C13.931 7.98596 13.8242 7.87803 13.6918 7.87729C13.6914 7.87729 13.6909 7.87729 13.6904 7.87729H10.9442C10.8118 7.87729 10.7045 7.98465 10.7045 8.11706V8.11841V10.5645C10.7045 10.697 10.8119 10.8043 10.9443 10.8043Z" fill="#2496ED"/>
<path d="M14.7408 10.8043H17.4869C17.6196 10.8043 17.7273 10.6972 17.7281 10.5646V8.11841C17.7281 7.98522 17.6201 7.87729 17.4869 7.87729H14.7408C14.6083 7.87729 14.501 7.98465 14.501 8.11706V8.11841V10.5645C14.501 10.697 14.6083 10.8043 14.7408 10.8043Z" fill="#2496ED"/>
<path d="M7.10227 7.2852H9.84847C9.98109 7.28446 10.0882 7.1767 10.0882 7.04408V4.59796C10.0882 4.46551 9.98087 4.35818 9.84847 4.35818H7.10227C6.96965 4.35818 6.86189 4.46529 6.86115 4.59796V7.04408C6.86189 7.17696 6.96939 7.28446 7.10227 7.2852Z" fill="#2496ED"/>
<path d="M10.9442 7.2852H13.6904C13.8231 7.28446 13.9302 7.1767 13.9302 7.04408V4.59796C13.9302 4.46551 13.8228 4.35818 13.6904 4.35818H10.9442C10.8118 4.35818 10.7045 4.46555 10.7045 4.59796V7.04408C10.7045 7.1767 10.8116 7.28446 10.9442 7.2852Z" fill="#2496ED"/>
<path d="M14.7408 7.2852H17.4869C17.6198 7.28446 17.7273 7.17696 17.7281 7.04408V4.59796C17.7273 4.46529 17.6196 4.35818 17.4869 4.35818H14.7408C14.6083 4.35818 14.501 4.46555 14.501 4.59796V7.04408C14.501 7.1767 14.6081 7.28446 14.7408 7.2852Z" fill="#2496ED"/>
<path d="M14.7408 3.76474H17.4869C17.6196 3.76474 17.7273 3.65758 17.7281 3.52496V1.07745C17.7273 0.944782 17.6196 0.837673 17.4869 0.837673H14.7408C14.6083 0.837673 14.501 0.944999 14.501 1.07745V3.52492C14.501 3.65737 14.6083 3.76474 14.7408 3.76474Z" fill="#2496ED"/>
<path d="M18.5706 10.8043H21.3168C21.4495 10.8043 21.5572 10.6972 21.558 10.5646V8.11841C21.558 7.98522 21.45 7.87729 21.3168 7.87729H18.5706C18.4382 7.87729 18.3309 7.98465 18.3309 8.11706V8.11841V10.5645C18.3309 10.697 18.4382 10.8043 18.5706 10.8043Z" fill="#2496ED"/>
</svg>
