<svg width="43" height="43" viewBox="0 0 43 43" fill="none" xmlns="http://www.w3.org/2000/svg">
<rect x="1.53589" y="1.20508" width="40" height="40" rx="20" stroke="#F0544F" stroke-width="2"/>
<path d="M23.7887 18.3869V19.6653H18.4961V18.3869H23.7887ZM20.0813 28.2051V17.0318C20.0813 16.4693 20.2134 16.0005 20.4776 15.6255C20.7419 15.2505 21.0849 14.9693 21.5068 14.7818C21.9286 14.5943 22.374 14.5005 22.8427 14.5005C23.2134 14.5005 23.516 14.5304 23.7504 14.59C23.9848 14.6497 24.1595 14.7051 24.2745 14.7562L23.8399 16.0602C23.7632 16.0346 23.6566 16.0027 23.5203 15.9643C23.3882 15.926 23.2134 15.9068 22.9961 15.9068C22.4975 15.9068 22.1375 16.0325 21.9159 16.2839C21.6985 16.5353 21.5899 16.9039 21.5899 17.3897V28.2051H20.0813Z" fill="#F0544F"/>
</svg>
