<svg width="22" height="32" viewBox="0 0 22 32" fill="none" xmlns="http://www.w3.org/2000/svg">
<path d="M5.81483 31.5556C8.67705 31.5556 11 29.2326 11 26.3704V21.1852H5.81483C2.9526 21.1852 0.629639 23.5082 0.629639 26.3704C0.629639 29.2326 2.9526 31.5556 5.81483 31.5556Z" fill="#0ACF83"/>
<path d="M0.629639 16C0.629639 13.1377 2.9526 10.8148 5.81483 10.8148H11V21.1851H5.81483C2.9526 21.1851 0.629639 18.8622 0.629639 16Z" fill="#A259FF"/>
<path d="M0.629639 5.62964C0.629639 2.76742 2.9526 0.444458 5.81483 0.444458H11V10.8148H5.81483C2.9526 10.8148 0.629639 8.49186 0.629639 5.62964Z" fill="#F24E1E"/>
<path d="M11 0.444458H16.1852C19.0474 0.444458 21.3704 2.76742 21.3704 5.62964C21.3704 8.49186 19.0474 10.8148 16.1852 10.8148H11V0.444458Z" fill="#FF7262"/>
<path d="M21.3704 16C21.3704 18.8622 19.0474 21.1851 16.1852 21.1851C13.323 21.1851 11 18.8622 11 16C11 13.1377 13.323 10.8148 16.1852 10.8148C19.0474 10.8148 21.3704 13.1377 21.3704 16Z" fill="#1ABCFE"/>
</svg>
