<svg width="32" height="32" viewBox="0 0 32 32" fill="none" xmlns="http://www.w3.org/2000/svg">
<path d="M16 0.444458C7.40835 0.444458 0.444443 7.40837 0.444443 16C0.444443 24.5917 7.40835 31.5556 16 31.5556C24.5916 31.5556 31.5556 24.5917 31.5556 16C31.5556 7.40837 24.5916 0.444458 16 0.444458ZM3.78702 16.1618L15.8382 28.213C9.22026 28.1271 3.87289 22.7797 3.78702 16.1618ZM18.734 27.9081L4.09191 13.266C5.33386 7.83646 10.1934 3.78455 16 3.78455C20.0581 3.78455 23.6546 5.76446 25.8759 8.81086L24.1847 10.3029C22.3828 7.71948 19.3886 6.02828 16 6.02828C11.6855 6.02828 8.01066 8.76855 6.62186 12.6039L19.3961 25.3769C22.4985 24.2532 24.8841 21.6349 25.683 18.3918H20.3892V16H28.2167C28.2155 21.8066 24.1636 26.6661 18.734 27.9081Z" fill="#744C9E"/>
</svg>
