<svg width="32" height="32" viewBox="0 0 32 32" fill="none" xmlns="http://www.w3.org/2000/svg">
<path d="M30.8346 14.6139L17.1753 1.03118C16.3892 0.248905 15.1133 0.248905 14.3262 1.03118L11.4898 3.85184L15.0879 7.42998C15.924 7.14901 16.8829 7.3375 17.5494 8.00031C18.2191 8.66738 18.4073 9.62903 18.1179 10.4632L21.5855 13.9117C22.4245 13.6243 23.3925 13.8102 24.0625 14.4776C24.999 15.4085 24.999 16.9173 24.0625 17.8488C23.1258 18.7804 21.6086 18.7804 20.6714 17.8488C19.967 17.1476 19.793 16.1189 20.1496 15.2559L16.9158 12.04L16.9154 20.5028C17.1498 20.6181 17.3639 20.7704 17.5494 20.9537C18.4859 21.8846 18.4859 23.3935 17.5494 24.3257C16.6127 25.2569 15.0948 25.2569 14.1594 24.3257C13.2229 23.3935 13.2229 21.8847 14.1594 20.9538C14.3838 20.7306 14.6505 20.5537 14.9441 20.4336V11.8919C14.6501 11.7725 14.3832 11.5956 14.1594 11.3716C13.4499 10.667 13.2793 9.6317 13.6428 8.76533L10.0959 5.23774L0.729968 14.551C-0.0570433 15.334 -0.0570433 16.6029 0.729968 17.3853L14.3895 30.9682C15.1759 31.7506 16.4515 31.7506 17.2389 30.9682L30.8345 17.4484C31.6213 16.6657 31.6213 15.3961 30.8345 14.6139" fill="#DE4C36"/>
</svg>
