<svg width="43" height="43" viewBox="0 0 43 43" fill="none" xmlns="http://www.w3.org/2000/svg">
<rect x="1.17664" y="1.37744" width="40" height="40" rx="20" stroke="#F0544F" stroke-width="2"/>
<path d="M18.513 28.8941C15.5391 27.3957 12.6223 27.5111 11.9831 23.318C11.5429 19.8844 12.7046 18.0721 13.3405 17.5952C13.2182 16.3847 13.135 13.8315 13.7807 13.3032C14.4263 12.7749 16.6421 14.3059 17.6692 15.1374C18.0595 14.9178 19.7878 14.55 21.1766 14.55C22.5654 14.55 24.2937 14.9178 24.684 15.1374C25.7112 14.3059 27.927 12.7749 28.5726 13.3032C29.2182 13.8315 29.1351 16.3847 29.0128 17.5952C29.6487 18.0721 30.8104 19.8844 30.3701 23.318C29.6797 27.8472 24.2817 28.6702 24.2817 28.6702L23.8403 28.8941C23.8403 28.8941 21.4869 30.3925 18.513 28.8941Z" stroke="#F0544F" stroke-width="1.5"/>
</svg>
