<svg width="28" height="32" viewBox="0 0 28 32" fill="none" xmlns="http://www.w3.org/2000/svg">
<path fill-rule="evenodd" clip-rule="evenodd" d="M16.6545 4.00648L23.0431 7.69515C23.2276 7.5 23.4392 7.3325 23.6715 7.19785C24.9964 6.43614 26.6864 6.8884 27.456 8.2134C28.2177 9.53841 27.7655 11.2283 26.4405 11.9979C26.2099 12.1307 25.9614 12.2296 25.7026 12.2917V19.6717C25.9586 19.7339 26.2044 19.8322 26.4326 19.9636C27.7655 20.7332 28.2177 22.4232 27.4481 23.7482C26.6864 25.0731 24.9886 25.5253 23.6636 24.7637C23.4069 24.6165 23.1756 24.4287 22.9788 24.2078L16.629 27.8738C16.722 28.1553 16.7693 28.45 16.7689 28.7465C16.7689 30.2698 15.5313 31.5156 14 31.5156C12.4687 31.5156 11.2311 30.2777 11.2311 28.7465C11.2311 28.4743 11.2702 28.2114 11.3431 27.9631L4.95621 24.2755C4.77379 24.4668 4.56511 24.6312 4.33643 24.7637C3.00354 25.5253 1.31355 25.0731 0.551839 23.7482C-0.209767 22.4232 0.242487 20.7332 1.56738 19.9636C1.79563 19.8321 2.04141 19.7338 2.29734 19.6716V12.2917C2.03858 12.2296 1.79009 12.1307 1.5595 11.9979C0.234494 11.2363 -0.21776 9.53841 0.543954 8.2134C1.30567 6.8884 3.00343 6.43614 4.32843 7.19785C4.55949 7.33178 4.7701 7.4982 4.95383 7.69202L11.3443 4.00237C11.2689 3.74669 11.2308 3.4815 11.2311 3.21495C11.2311 1.68385 12.4687 0.446014 14 0.446014C15.5313 0.446014 16.7689 1.68375 16.7689 3.21495C16.7689 3.49017 16.729 3.75578 16.6545 4.00648ZM15.989 5.143L22.3928 8.84031C22.2908 9.19677 22.2616 9.57008 22.3068 9.93807C22.352 10.306 22.4708 10.6612 22.656 10.9823C23.0458 11.6604 23.6808 12.11 24.3856 12.2852V19.6744C24.3497 19.6832 24.3139 19.6928 24.2784 19.7029L15.9145 5.21699C15.9398 5.19279 15.9647 5.16817 15.989 5.14311V5.143ZM12.0872 5.21861L3.72345 19.7044C3.68728 19.6939 3.65091 19.6842 3.61435 19.6752V12.2852C4.31914 12.11 4.95416 11.6604 5.34398 10.9823C5.52959 10.6606 5.64846 10.3047 5.69351 9.93596C5.73855 9.56723 5.70883 9.1932 5.60613 8.83621L12.0081 5.13997C12.0339 5.16665 12.0603 5.1929 12.0872 5.2185V5.21861ZM14.7737 5.87479L23.1355 20.3573C22.9439 20.5401 22.7798 20.7495 22.648 20.9791C22.5166 21.2074 22.4183 21.4532 22.3562 21.7091H5.64404C5.5818 21.4531 5.48345 21.2074 5.35197 20.9791C5.21976 20.7511 5.0559 20.5429 4.86526 20.3609L13.2287 5.87544C13.4794 5.94764 13.7391 5.98415 14 5.98389C14.2686 5.98389 14.5282 5.94587 14.7737 5.87479ZM16.0477 26.8811L22.4099 23.2078C22.3909 23.1478 22.3738 23.0872 22.3589 23.0261H5.64048C5.63162 23.0621 5.62201 23.0977 5.61175 23.1333L12.0051 26.8246C12.2633 26.5562 12.5731 26.3427 12.9159 26.1971C13.2588 26.0516 13.6275 25.9769 14 25.9776C14.3855 25.9769 14.7668 26.057 15.1195 26.2126C15.4722 26.3682 15.7884 26.5959 16.0477 26.8811Z" fill="#E535AB"/>
</svg>
