<svg width="43" height="43" viewBox="0 0 43 43" fill="none" xmlns="http://www.w3.org/2000/svg">
<rect x="1.53589" y="1.37744" width="40" height="40" rx="20" stroke="#F0544F" stroke-width="2"/>
<path d="M15.4166 28.3774V18.5593H16.9251V28.3774H15.4166ZM16.1836 16.9229C15.8896 16.9229 15.636 16.8228 15.423 16.6225C15.2142 16.4222 15.1098 16.1814 15.1098 15.9002C15.1098 15.6189 15.2142 15.3782 15.423 15.1779C15.636 14.9776 15.8896 14.8774 16.1836 14.8774C16.4777 14.8774 16.7291 14.9776 16.9379 15.1779C17.1509 15.3782 17.2575 15.6189 17.2575 15.9002C17.2575 16.1814 17.1509 16.4222 16.9379 16.6225C16.7291 16.8228 16.4777 16.9229 16.1836 16.9229ZM21.1966 22.4712V28.3774H19.6881V18.5593H21.1454V20.0934H21.2733C21.5034 19.5948 21.8528 19.1942 22.3216 18.8916C22.7903 18.5848 23.3954 18.4314 24.1369 18.4314C24.8017 18.4314 25.3834 18.5678 25.8819 18.8405C26.3805 19.109 26.7683 19.5181 27.0453 20.0678C27.3223 20.6132 27.4608 21.3036 27.4608 22.1388V28.3774H25.9523V22.2411C25.9523 21.4698 25.752 20.8689 25.3514 20.4385C24.9508 20.0039 24.4011 19.7865 23.7023 19.7865C23.2207 19.7865 22.7903 19.8909 22.4111 20.0997C22.0361 20.3085 21.7399 20.6132 21.5226 21.0138C21.3052 21.4144 21.1966 21.9002 21.1966 22.4712Z" fill="#F0544F"/>
</svg>
