<svg width="85" height="30" viewBox="0 0 85 30" fill="none" xmlns="http://www.w3.org/2000/svg">
<path d="M4.10691 24.1078C3.54441 24.1078 3.06146 23.909 2.65805 23.5112C2.26032 23.1078 2.06146 22.6249 2.06146 22.0624C2.06146 21.5055 2.26032 21.0283 2.65805 20.6305C3.06146 20.2328 3.54441 20.034 4.10691 20.034C4.65237 20.034 5.12964 20.2328 5.53873 20.6305C5.94782 21.0283 6.15237 21.5055 6.15237 22.0624C6.15237 22.4374 6.05578 22.7811 5.86259 23.0936C5.67509 23.4004 5.42793 23.6476 5.12112 23.8351C4.8143 24.0169 4.47623 24.1078 4.10691 24.1078ZM20.0252 14.5283L16.7014 14.7328C16.6446 14.4487 16.5224 14.193 16.3349 13.9658C16.1474 13.7328 15.9002 13.5482 15.5934 13.4118C15.2923 13.2698 14.9315 13.1987 14.511 13.1987C13.9485 13.1987 13.4741 13.318 13.0877 13.5567C12.7014 13.7896 12.5082 14.1021 12.5082 14.4942C12.5082 14.8067 12.6332 15.0709 12.8832 15.2868C13.1332 15.5027 13.5622 15.676 14.1701 15.8067L16.5394 16.284C17.8122 16.5453 18.761 16.9658 19.386 17.5453C20.011 18.1249 20.3235 18.8862 20.3235 19.8294C20.3235 20.6874 20.0707 21.4402 19.565 22.0879C19.065 22.7357 18.3775 23.2413 17.5025 23.605C16.6332 23.9629 15.6303 24.1419 14.494 24.1419C12.761 24.1419 11.3803 23.7811 10.3519 23.0595C9.32921 22.3323 8.72978 21.3436 8.55364 20.0936L12.1247 19.9061C12.2326 20.4345 12.494 20.8379 12.9088 21.1163C13.3235 21.3891 13.8548 21.5254 14.5025 21.5254C15.1389 21.5254 15.6502 21.4033 16.0366 21.159C16.4286 20.909 16.6275 20.5879 16.6332 20.1959C16.6275 19.8663 16.4883 19.5965 16.2156 19.3862C15.9428 19.1703 15.5224 19.0055 14.9542 18.8919L12.6872 18.4402C11.4088 18.1845 10.4571 17.7413 9.83205 17.1107C9.21274 16.48 8.90308 15.676 8.90308 14.6987C8.90308 13.8578 9.13035 13.1334 9.58489 12.5254C10.0451 11.9175 10.69 11.4487 11.5196 11.1192C12.3548 10.7896 13.3321 10.6249 14.4514 10.6249C16.1048 10.6249 17.4059 10.9743 18.3548 11.6732C19.3093 12.372 19.8661 13.3237 20.0252 14.5283ZM22.6098 28.7953V10.7953H26.1893V12.9942H26.3512C26.5103 12.6419 26.7404 12.284 27.0416 11.9203C27.3484 11.551 27.7461 11.2442 28.2348 10.9999C28.7291 10.7499 29.3427 10.6249 30.0757 10.6249C31.0302 10.6249 31.9109 10.8749 32.7177 11.3749C33.5245 11.8692 34.1694 12.6163 34.6524 13.6163C35.1353 14.6107 35.3768 15.8578 35.3768 17.3578C35.3768 18.818 35.141 20.051 34.6694 21.0567C34.2035 22.0567 33.5671 22.8152 32.7603 23.3323C31.9592 23.8436 31.0615 24.0993 30.0671 24.0993C29.3626 24.0993 28.7632 23.9828 28.2688 23.7499C27.7802 23.5169 27.3796 23.2243 27.0671 22.872C26.7546 22.5141 26.516 22.1533 26.3512 21.7896H26.2404V28.7953H22.6098ZM26.1637 17.3408C26.1637 18.1192 26.2717 18.7982 26.4876 19.3777C26.7035 19.9573 27.016 20.409 27.4251 20.7328C27.8342 21.051 28.3313 21.2101 28.9166 21.2101C29.5075 21.2101 30.0075 21.0482 30.4166 20.7243C30.8257 20.3948 31.1353 19.9402 31.3455 19.3607C31.5615 18.7754 31.6694 18.1021 31.6694 17.3408C31.6694 16.5851 31.5643 15.9203 31.3541 15.3465C31.1438 14.7726 30.8342 14.3237 30.4251 13.9999C30.016 13.676 29.5132 13.5141 28.9166 13.5141C28.3257 13.5141 27.8257 13.6703 27.4166 13.9828C27.0132 14.2953 26.7035 14.7385 26.4876 15.3124C26.2717 15.8862 26.1637 16.5624 26.1637 17.3408ZM37.7973 23.8862V10.7953H41.4279V23.8862H37.7973ZM39.6211 9.10782C39.0813 9.10782 38.6183 8.92884 38.2319 8.57089C37.8512 8.20725 37.6609 7.77259 37.6609 7.26691C37.6609 6.76691 37.8512 6.33793 38.2319 5.97998C38.6183 5.61634 39.0813 5.43453 39.6211 5.43453C40.1609 5.43453 40.6211 5.61634 41.0018 5.97998C41.3882 6.33793 41.5813 6.76691 41.5813 7.26691C41.5813 7.77259 41.3882 8.20725 41.0018 8.57089C40.6211 8.92884 40.1609 9.10782 39.6211 9.10782ZM44.3363 23.8862V10.7953H47.8562V13.0794H47.9926C48.2312 12.2669 48.6318 11.6533 49.1943 11.2385C49.7568 10.818 50.4045 10.6078 51.1375 10.6078C51.3193 10.6078 51.5153 10.6192 51.7255 10.6419C51.9357 10.6646 52.1204 10.6959 52.2795 10.7357V13.9573C52.109 13.9061 51.8732 13.8607 51.5721 13.8209C51.271 13.7811 50.9954 13.7612 50.7454 13.7612C50.2113 13.7612 49.734 13.8777 49.3136 14.1107C48.8988 14.3379 48.5693 14.6561 48.325 15.0652C48.0863 15.4743 47.967 15.9459 47.967 16.48V23.8862H44.3363ZM59.5132 24.1419C58.1666 24.1419 57.0075 23.8692 56.0359 23.3237C55.07 22.7726 54.3257 21.9942 53.8029 20.9885C53.2802 19.9771 53.0188 18.7811 53.0188 17.4004C53.0188 16.0538 53.2802 14.872 53.8029 13.855C54.3257 12.8379 55.0615 12.0453 56.0103 11.4771C56.9649 10.909 58.0842 10.6249 59.3683 10.6249C60.2319 10.6249 61.0359 10.7641 61.7802 11.0425C62.5302 11.3152 63.1836 11.7271 63.7404 12.2783C64.3029 12.8294 64.7404 13.5226 65.0529 14.3578C65.3654 15.1874 65.5217 16.159 65.5217 17.2726V18.2698H54.4677V16.0198H62.1041C62.1041 15.497 61.9904 15.034 61.7632 14.6305C61.5359 14.2271 61.2205 13.9118 60.8171 13.6845C60.4194 13.4516 59.9563 13.3351 59.4279 13.3351C58.8768 13.3351 58.3882 13.4629 57.962 13.7186C57.5416 13.9686 57.212 14.3067 56.9734 14.7328C56.7348 15.1533 56.6126 15.622 56.6069 16.1391V18.2783C56.6069 18.926 56.7262 19.4857 56.9649 19.9573C57.2092 20.4288 57.5529 20.7925 57.9961 21.0482C58.4393 21.3038 58.9649 21.4317 59.5728 21.4317C59.9762 21.4317 60.3455 21.3749 60.6808 21.2612C61.016 21.1476 61.3029 20.9771 61.5416 20.7499C61.7802 20.5226 61.962 20.2442 62.087 19.9146L65.445 20.1362C65.2745 20.943 64.9251 21.6476 64.3967 22.2499C63.874 22.8465 63.1978 23.3124 62.3683 23.6476C61.5444 23.9771 60.5927 24.1419 59.5132 24.1419Z" fill="#333333"/>
<path d="M71.4194 6.43168L74.9393 12.3805H75.0757L78.6126 6.43168H82.7802L77.4535 15.159L82.8995 23.8862H78.6552L75.0757 17.9288H74.9393L71.3598 23.8862H67.1325L72.5955 15.159L67.2348 6.43168H71.4194Z" fill="#FF4848"/>
<path d="M64.0928 28.7004L78.6222 6.42871H82.7851L68.872 28.7004L64.0928 28.7004Z" fill="#FF4848"/>
</svg>
