<svg width="43" height="43" viewBox="0 0 43 43" fill="none" xmlns="http://www.w3.org/2000/svg">
<rect x="1.53589" y="1.20459" width="40" height="40" rx="20" stroke="#F0544F" stroke-width="2"/>
<path fill-rule="evenodd" clip-rule="evenodd" d="M12.4481 17.7311C12.1679 20.334 12.1804 23.336 12.5702 25.9283C12.7859 27.3627 13.9566 28.4623 15.4017 28.588L16.9119 28.7192C20.061 28.993 23.2278 28.993 26.3769 28.7192L27.8871 28.588C29.3322 28.4623 30.5028 27.3627 30.7185 25.9283C31.1084 23.336 31.1209 20.3342 30.8407 17.7313C30.8045 17.4295 30.7638 17.1281 30.7185 16.8273C30.5028 15.3929 29.3322 14.2933 27.8871 14.1676L26.3769 14.0364C23.2278 13.7626 20.061 13.7626 16.9119 14.0364L15.4017 14.1676C13.9566 14.2933 12.7859 15.3929 12.5702 16.8273C12.525 17.1281 12.4843 17.4294 12.4481 17.7311ZM17.0418 15.5307C20.1044 15.2645 23.1844 15.2645 26.247 15.5307L27.7572 15.662C28.5115 15.7276 29.1226 16.3016 29.2352 17.0504C29.2469 17.1281 29.2583 17.2059 29.2693 17.2837L23.7083 20.3732C22.4247 21.0863 20.864 21.0863 19.5804 20.3732L14.0194 17.2838C14.0305 17.2059 14.0419 17.1281 14.0536 17.0504C14.1662 16.3016 14.7772 15.7276 15.5316 15.662L17.0418 15.5307ZM29.4529 18.8977C29.6469 21.1654 29.5743 23.4503 29.2352 25.7053C29.1226 26.454 28.5115 27.028 27.7572 27.0936L26.247 27.2249C23.1844 27.4911 20.1044 27.4911 17.0418 27.2249L15.5316 27.0936C14.7773 27.028 14.1662 26.454 14.0536 25.7053C13.7145 23.4503 13.6419 21.1655 13.8359 18.8977L18.8519 21.6844C20.5885 22.6492 22.7002 22.6492 24.4368 21.6844L29.4529 18.8977Z" fill="#F0544F"/>
</svg>
