<svg width="15" height="32" viewBox="0 0 15 32" fill="none" xmlns="http://www.w3.org/2000/svg">
<path d="M7.62283 0.529419L8.45768 2.08875C8.64538 2.3765 8.84872 2.63121 9.08823 2.86841C9.79041 3.55798 10.4449 4.29396 11.0473 5.0713C12.4619 6.91839 13.416 8.96962 14.0974 11.1881C14.506 12.5432 14.7279 13.9334 14.7445 15.3391C14.813 19.5418 13.3642 23.1504 10.4432 26.1495C9.96802 26.625 9.45472 27.0614 8.90835 27.4541C8.61898 27.4541 8.48212 27.2334 8.36286 27.0302C8.14567 26.6535 8.00112 26.2397 7.93663 25.8102C7.83398 25.3017 7.76653 24.7933 7.79977 24.2683V24.0311C7.77631 23.9806 7.52116 0.648993 7.62283 0.529419Z" fill="#599636"/>
<path d="M7.62285 0.477888C7.58863 0.409837 7.55441 0.461361 7.5202 0.494414C7.53682 0.834667 7.41755 1.13798 7.23083 1.42768C7.02554 1.71544 6.75377 1.93611 6.48103 2.17332C4.96578 3.47794 3.77312 5.0538 2.81803 6.81631C1.54717 9.18836 0.892188 11.7305 0.706447 14.4069C0.621397 15.3722 1.01341 18.7786 1.31939 19.7615C2.15425 22.3707 3.65386 24.5571 5.59632 26.4547C6.07338 26.9116 6.58367 27.3355 7.11157 27.7428C7.26505 27.7428 7.28167 27.6067 7.31686 27.5056C7.38415 27.2893 7.43545 27.0683 7.47034 26.8446L7.8125 24.3034L7.62285 0.477888Z" fill="#6CAC48"/>
<path d="M8.45771 28.4865C8.49192 28.0976 8.67962 27.7749 8.88393 27.4531C8.67864 27.3685 8.52614 27.2003 8.40687 27.0127C8.30403 26.8351 8.2189 26.6479 8.1527 26.4537C7.91417 25.7421 7.86333 24.9955 7.7949 24.2684V23.828C7.70985 23.896 7.69226 24.4715 7.69226 24.5571C7.64251 25.3256 7.53995 26.0899 7.3853 26.8445C7.33446 27.1498 7.30025 27.4541 7.11157 27.7253C7.11157 27.7593 7.11157 27.7934 7.12819 27.8439C7.43515 28.7422 7.51923 29.657 7.57104 30.5892V30.9295C7.57104 31.3359 7.55442 31.2503 7.89364 31.3864C8.0305 31.437 8.18301 31.4545 8.31987 31.5556C8.42251 31.5556 8.43913 31.471 8.43913 31.4029L8.3883 30.8439V29.2846C8.37168 29.0124 8.42251 28.7422 8.45673 28.4875L8.45771 28.4865Z" fill="#C2BFBF"/>
</svg>
