<svg width="30" height="32" viewBox="0 0 30 32" fill="none" xmlns="http://www.w3.org/2000/svg">
<path d="M13.7262 0.77637C14.4976 0.334819 15.5024 0.332824 16.2732 0.77637C20.1507 2.96739 24.0295 5.15498 27.9064 7.34734C28.6356 7.75809 29.1234 8.56961 29.1159 9.40983V22.5919C29.1214 23.4669 28.5854 24.2978 27.8161 24.6992C23.9513 26.8782 20.0884 29.0598 16.2243 31.2387C15.4369 31.6889 14.412 31.6543 13.6492 31.1672C12.4906 30.4955 11.3299 29.8271 10.1711 29.1561C9.93432 29.0149 9.6674 28.9026 9.50019 28.673C9.64801 28.4738 9.91227 28.4489 10.127 28.362C10.6107 28.2082 11.0549 27.9613 11.4992 27.7217C11.6116 27.6448 11.7487 27.6743 11.8564 27.7431C12.8472 28.3112 13.8293 28.8958 14.8234 29.4585C15.0355 29.5809 15.2502 29.4184 15.4315 29.3173C19.2241 27.1738 23.0213 25.0384 26.8132 22.8943C26.9537 22.8267 27.0314 22.6775 27.02 22.5236C27.0226 18.1751 27.0206 13.8259 27.0213 9.47742C27.0374 9.3028 26.9363 9.14224 26.7784 9.07077C22.927 6.9018 19.0776 4.7295 15.2268 2.55997C15.1601 2.5141 15.0811 2.48949 15.0001 2.48938C14.9192 2.48926 14.8401 2.51363 14.7732 2.55931C10.9225 4.7295 7.07371 6.90379 3.22296 9.07266C3.06562 9.14424 2.96003 9.30213 2.97875 9.47742C2.97942 13.8259 2.97875 18.1751 2.97875 22.5243C2.97208 22.5994 2.98857 22.6747 3.02601 22.7402C3.06346 22.8056 3.12005 22.858 3.18817 22.8903C4.21576 23.473 5.24468 24.0516 6.27294 24.6323C6.85222 24.9441 7.56346 25.1294 8.20169 24.8905C8.7649 24.6885 9.1597 24.1138 9.14895 23.5158C9.15427 19.1927 9.14629 14.8689 9.15294 10.5465C9.13887 10.3545 9.32091 10.196 9.50751 10.214C10.0012 10.2107 10.4957 10.2074 10.9894 10.2154C11.1955 10.2107 11.3373 10.4174 11.3118 10.6107C11.3098 14.9612 11.3171 19.3118 11.3085 23.6622C11.3098 24.8217 10.8335 26.0833 9.76103 26.6506C8.43981 27.335 6.80679 27.1899 5.50152 26.5336C4.37155 25.9696 3.29321 25.304 2.1833 24.6998C1.412 24.3006 0.878699 23.4663 0.884129 22.592V9.40983C0.87604 8.55221 1.38319 7.72595 2.1351 7.32119C5.99925 5.14047 9.86274 2.95809 13.7262 0.77637Z" fill="#8CC84B"/>
<path d="M17.0973 9.90765C18.7826 9.79918 20.5869 9.84339 22.1034 10.6736C23.2776 11.3099 23.9286 12.6452 23.9493 13.9496C23.9165 14.1256 23.7326 14.2227 23.5646 14.2106C23.0756 14.2099 22.5865 14.2172 22.0975 14.2073C21.8901 14.2152 21.7696 14.024 21.7435 13.8406C21.603 13.2165 21.2626 12.5983 20.6752 12.2972C19.7733 11.8457 18.7277 11.8684 17.7443 11.8778C17.0264 11.916 16.2544 11.9781 15.6462 12.4003C15.1793 12.7201 15.0375 13.3656 15.2041 13.8855C15.3613 14.2588 15.7922 14.3792 16.1447 14.4903C18.1758 15.0214 20.328 14.9686 22.3203 15.6677C23.1451 15.9526 23.952 16.5067 24.2343 17.3703C24.6036 18.5277 24.4417 19.9112 23.6182 20.8404C22.9504 21.605 21.9778 22.0212 21.0077 22.2473C19.7172 22.535 18.3779 22.5423 17.0673 22.4146C15.8349 22.2741 14.5525 21.9503 13.6011 21.1106C12.7876 20.4043 12.3903 19.3037 12.4297 18.2414C12.4392 18.062 12.6178 17.9369 12.7896 17.9516C13.282 17.9477 13.7744 17.9463 14.2669 17.9523C14.4635 17.9382 14.6093 18.1082 14.6194 18.2936C14.7103 18.8883 14.9338 19.5124 15.4523 19.865C16.4531 20.5106 17.7088 20.4664 18.8548 20.4845C19.8041 20.4424 20.8698 20.4296 21.6446 19.8022C22.0533 19.4443 22.1744 18.8455 22.064 18.3304C21.9443 17.8955 21.4893 17.6928 21.0987 17.5603C19.0937 16.926 16.9174 17.1562 14.9318 16.439C14.1257 16.1541 13.3462 15.6155 13.0365 14.7873C12.6044 13.6152 12.8024 12.1655 13.7122 11.2677C14.5993 10.3746 15.8798 10.0306 17.0973 9.90754V9.90765Z" fill="#8CC84B"/>
</svg>
