<svg width="51" height="50" viewBox="0 0 51 50" fill="none" xmlns="http://www.w3.org/2000/svg">
<path d="M47.7873 33.4002C48.75 30.8026 49.2759 27.993 49.2759 25.0605C49.2759 11.8057 38.5307 1.06055 25.2759 1.06055C12.021 1.06055 1.27588 11.8057 1.27588 25.0605C1.27588 38.3154 12.021 49.0605 25.2759 49.0605C31.9813 49.0605 38.0444 46.3107 42.3991 41.8771" stroke="#FF6B00" stroke-width="1.5"/>
<path d="M20.5084 29.7749H17.121V34.8352H20.5084C26.196 34.8352 27.59 30.1235 27.5761 27.7676V22.9164C27.5761 21.2436 28.9701 20.8254 29.6671 20.8254H33.4309V15.7651H29.6671C24.013 15.7651 22.5437 20.5326 22.5158 22.9164V27.7676C22.5158 29.2731 21.1776 29.7331 20.5084 29.7749Z" stroke="#FF6B00" stroke-width="1.5" stroke-linecap="round"/>
<mask id="path-3-inside-1_194_209" fill="white">
<rect x="32.6932" y="12.2446" width="5.25014" height="11.8017" rx="1"/>
</mask>
<rect x="32.6932" y="12.2446" width="5.25014" height="11.8017" rx="1" stroke="#FF6B00" stroke-width="3" mask="url(#path-3-inside-1_194_209)"/>
<mask id="path-4-inside-2_194_209" fill="white">
<rect x="12.6083" y="26.0752" width="5.25014" height="11.8017" rx="1"/>
</mask>
<rect x="12.6083" y="26.0752" width="5.25014" height="11.8017" rx="1" stroke="#FF6B00" stroke-width="3" mask="url(#path-4-inside-2_194_209)"/>
</svg>
