<svg width="32" height="32" viewBox="0 0 32 32" fill="none" xmlns="http://www.w3.org/2000/svg">
<path d="M31.0227 19.0807C30.8408 18.5314 30.3644 18.1488 29.7482 18.0569C29.4577 18.0137 29.1249 18.0321 28.7312 18.1131C28.0449 18.2543 27.5357 18.308 27.1641 18.3184C28.5667 15.957 29.7072 13.2642 30.3638 10.7293C31.4255 6.63049 30.8581 4.76322 30.1952 3.91862C28.4407 1.68305 25.8809 0.48208 22.7928 0.445332C21.1454 0.425245 19.6992 0.749592 18.9447 0.982838C18.2423 0.859244 17.4871 0.790239 16.6946 0.777478C15.2091 0.753846 13.8965 1.07677 12.775 1.74047C12.1541 1.5311 11.1576 1.23593 10.0068 1.04759C7.30023 0.604493 5.1188 0.949754 3.5232 2.0738C1.59107 3.43476 0.695396 5.79936 0.861047 9.1019C0.913657 10.1504 1.50185 13.3407 2.42798 16.3663C2.96024 18.1054 3.52782 19.5495 4.11494 20.659C4.94758 22.2323 5.83852 23.1588 6.83871 23.4916C7.39929 23.6778 8.41784 23.8082 9.48912 22.9185C9.62492 23.0825 9.80609 23.2454 10.0465 23.3968C10.3519 23.5888 10.7252 23.7457 11.0981 23.8387C12.4419 24.1737 13.7007 24.0899 14.7746 23.6203C14.7812 23.8108 14.7863 23.9928 14.7906 24.1499C14.7977 24.4048 14.8048 24.6547 14.8141 24.8884C14.8778 26.4687 14.9856 27.6974 15.305 28.5571C15.3226 28.6044 15.3462 28.6765 15.371 28.7529C15.5304 29.2395 15.7969 30.0541 16.4749 30.692C17.177 31.3529 18.0262 31.5556 18.804 31.5556C19.194 31.5556 19.5662 31.5045 19.8927 31.4348C21.0563 31.1861 22.3778 30.8073 23.3338 29.4498C24.2376 28.1666 24.677 26.2339 24.7565 23.1886C24.7668 23.1025 24.7763 23.0202 24.7854 22.9419L24.8044 22.7809L25.0173 22.7996L25.0722 22.8033C26.2573 22.8572 27.7065 22.6065 28.5965 22.1943C29.2997 21.8689 31.5533 20.6824 31.0227 19.0807Z" fill="black"/>
<path d="M28.9963 19.3922C25.4723 20.1171 25.23 18.9273 25.23 18.9273C28.9507 13.4219 30.5061 6.43364 29.1639 4.72329C25.5021 0.0577717 19.1634 2.26428 19.0576 2.32147L19.0236 2.32761C18.3273 2.18346 17.5482 2.09767 16.6724 2.08338C15.078 2.05738 13.8685 2.50024 12.9506 3.19431C12.9506 3.19431 1.64297 -1.451 2.16895 9.03657C2.28081 11.2677 5.37581 25.9183 9.0673 21.4932C10.4166 19.875 11.7203 18.5068 11.7203 18.5068C12.3678 18.9357 13.1429 19.1545 13.9555 19.076L14.0187 19.0226C13.999 19.2234 14.008 19.4199 14.0439 19.6526C13.0929 20.7121 13.3725 20.8981 11.4714 21.2884C9.54766 21.6837 10.6777 22.3875 11.4156 22.5716C12.3101 22.7946 14.3794 23.1105 15.7776 21.1586L15.7219 21.3814C16.0944 21.679 16.3561 23.3172 16.3122 24.8023C16.2684 26.2873 16.2391 27.3069 16.5326 28.1033C16.8264 28.8997 17.1189 30.6916 19.6181 30.1577C21.7063 29.7114 22.7885 28.5549 22.9391 26.6259C23.0459 25.2545 23.2877 25.4573 23.3029 24.2311L23.4969 23.6507C23.7204 21.7917 23.5324 21.192 24.8189 21.4709L25.1317 21.4984C26.0784 21.5412 27.3179 21.3464 28.0453 21.0093C29.6115 20.2845 30.5405 19.0742 28.996 19.3922H28.9963Z" fill="#336791"/>
<path d="M13.6125 10.0343C13.295 9.99024 13.0074 10.031 12.8619 10.1409C12.7801 10.2027 12.7548 10.2743 12.7479 10.3236C12.7297 10.4541 12.8214 10.5985 12.8778 10.673C13.0373 10.8838 13.2702 11.0286 13.5008 11.0605C13.5342 11.0652 13.5675 11.0674 13.6006 11.0674C13.9851 11.0674 14.3347 10.7688 14.3656 10.5484C14.4041 10.2724 14.0023 10.0884 13.6125 10.0344V10.0343ZM24.1327 10.0431C24.1024 9.82671 23.7163 9.76503 23.3499 9.81584C22.984 9.86665 22.6293 10.0314 22.6589 10.2482C22.6826 10.4168 22.988 10.7046 23.3494 10.7046C23.3799 10.7046 23.4107 10.7026 23.4418 10.6982C23.683 10.6649 23.8601 10.5121 23.9442 10.4241C24.0722 10.2899 24.1463 10.1403 24.1327 10.0431Z" fill="white"/>
<path d="M30.1689 19.3098C30.0346 18.9047 29.6021 18.7743 28.8835 18.9223C26.7501 19.3613 25.9861 19.0572 25.7352 18.873C27.3935 16.3538 28.7577 13.3086 29.4936 10.4675C29.8422 9.12165 30.0348 7.87176 30.0506 6.85299C30.068 5.73485 29.877 4.91317 29.4831 4.41123C27.8951 2.38775 25.5643 1.30234 22.743 1.27256C20.8035 1.25082 19.1647 1.74579 18.847 1.88498C18.178 1.71908 17.4487 1.61723 16.6547 1.60423C15.1987 1.58072 13.9401 1.92834 12.898 2.63695C12.4454 2.46892 11.2757 2.06848 9.8451 1.83866C7.37194 1.44165 5.40664 1.74248 4.00417 2.73325C2.33071 3.91555 1.55815 6.02895 1.7078 9.0146C1.75816 10.0191 2.33213 13.1092 3.23788 16.0685C4.43015 19.9635 5.72621 22.1684 7.08981 22.6221C7.24942 22.6751 7.43344 22.7122 7.63642 22.7122C8.13385 22.7122 8.74372 22.4887 9.37825 21.728C10.1522 20.8021 10.9528 19.8988 11.779 19.019C12.3151 19.3059 12.904 19.4661 13.5063 19.4822C13.5074 19.4979 13.509 19.5136 13.5104 19.5292C13.4067 19.6525 13.3052 19.7776 13.2059 19.9044C12.7886 20.4327 12.7017 20.5427 11.3584 20.8185C10.9762 20.8972 9.96134 21.1057 9.94641 21.8152C9.9303 22.5903 11.1461 22.9158 11.2847 22.9503C11.7674 23.0708 12.2325 23.1303 12.676 23.1303C13.7546 23.1303 14.7039 22.7767 15.4624 22.0927C15.4391 24.856 15.5546 27.5788 15.8874 28.4084C16.1599 29.0876 16.8256 30.7474 18.9283 30.7473C19.2369 30.7473 19.5765 30.7115 19.9501 30.6316C22.1447 30.1625 23.0977 29.1953 23.4663 27.0628C23.6636 25.9232 24.0021 23.2019 24.1614 21.7421C24.4974 21.8467 24.9301 21.8946 25.3977 21.8944C26.3732 21.8944 27.4987 21.6878 28.2046 21.3611C28.9975 20.9938 30.4284 20.0927 30.1689 19.3098ZM24.9427 9.44588C24.9355 9.87681 24.876 10.268 24.813 10.6764C24.7451 11.1156 24.6749 11.5697 24.6573 12.1209C24.6399 12.6573 24.7071 13.215 24.772 13.7544C24.9033 14.8439 25.038 15.9654 24.5165 17.0721C24.4299 16.9191 24.3527 16.7609 24.2855 16.5984C24.2206 16.4417 24.0799 16.1901 23.885 15.8417C23.1267 14.4857 21.3511 11.3103 22.2601 10.0146C22.5308 9.62891 23.218 9.23236 24.9427 9.44588ZM22.8521 2.14517C25.38 2.20082 27.3796 3.14385 28.7954 4.94791C29.8812 6.33167 28.6855 12.628 25.224 18.0599C25.1892 18.0158 25.1542 17.9718 25.119 17.9279L25.0752 17.8734C25.9697 16.4003 25.7948 14.9428 25.6391 13.6506C25.5751 13.1203 25.5147 12.6194 25.5301 12.1489C25.546 11.6503 25.6121 11.2225 25.6761 10.809C25.7546 10.2993 25.8346 9.772 25.8126 9.15036C25.829 9.08514 25.8357 9.0081 25.827 8.91664C25.7708 8.32053 25.0882 6.53644 23.6971 4.92168C22.9362 4.03843 21.8265 3.05003 20.3114 2.38338C20.9631 2.24867 21.8542 2.12307 22.8521 2.14517ZM8.70675 21.1712C8.00765 22.0094 7.52492 21.8487 7.36614 21.796C6.3317 21.4519 5.13138 19.2717 4.07313 15.8143C3.15743 12.8228 2.62232 9.81454 2.5799 8.971C2.44624 6.30319 3.09475 4.44396 4.50752 3.4448C6.80674 1.81893 10.5869 2.79209 12.1058 3.28564C12.084 3.30715 12.0613 3.32723 12.0397 3.34909C9.5471 5.85927 9.60622 10.148 9.61239 10.4102C9.61215 10.5113 9.62068 10.6545 9.63229 10.8515C9.67519 11.5729 9.75505 12.9154 9.54176 14.4357C9.34365 15.8486 9.78041 17.2314 10.7398 18.2297C10.8383 18.332 10.9418 18.4293 11.0499 18.5213C10.6229 18.9774 9.69474 19.986 8.70675 21.1712ZM11.3703 17.6272C10.5971 16.8226 10.2458 15.7034 10.4066 14.5563C10.6318 12.9502 10.5487 11.5515 10.504 10.8C10.4978 10.6948 10.4922 10.6027 10.489 10.53C10.8531 10.208 12.5406 9.30645 13.744 9.58141C14.293 9.70677 14.6277 10.0797 14.7668 10.7211C15.4867 14.0417 14.862 15.4257 14.3601 16.5379C14.2567 16.767 14.1589 16.9836 14.0755 17.2076L14.0108 17.3809C13.847 17.8188 13.6947 18.2259 13.6002 18.6126C12.7781 18.6102 11.9784 18.26 11.3703 17.6271V17.6272ZM11.4965 22.1055C11.2565 22.0457 11.0406 21.9418 10.9139 21.8557C11.0197 21.8061 11.208 21.7385 11.5346 21.6714C13.1149 21.347 13.359 21.118 13.892 20.4432C14.0141 20.2884 14.1526 20.1131 14.3445 19.8994L14.3447 19.8992C14.6304 19.5802 14.7611 19.6343 14.9981 19.7324C15.1901 19.8115 15.3772 20.0516 15.4531 20.3158C15.489 20.4406 15.5293 20.6774 15.3974 20.8617C14.284 22.4162 12.6617 22.3963 11.4965 22.1055ZM19.7671 29.7802C17.8338 30.1932 17.1493 29.2096 16.6982 28.085C16.4071 27.3591 16.2639 24.0853 16.3655 20.47C16.3668 20.4219 16.3599 20.3755 16.3466 20.3318C16.3348 20.2454 16.3167 20.1601 16.2926 20.0763C16.1416 19.5503 15.7737 19.1103 15.3323 18.9278C15.157 18.8554 14.8351 18.7225 14.4484 18.8211C14.5309 18.4822 14.6739 18.0995 14.829 17.6851L14.894 17.5108C14.9673 17.3143 15.0592 17.1108 15.1564 16.8952C15.6817 15.7316 16.401 14.1377 15.6203 10.5371C15.3278 9.18841 14.3512 8.52979 12.8708 8.68281C11.9833 8.77438 11.1713 9.13146 10.7663 9.33623C10.6792 9.38018 10.5995 9.42272 10.5251 9.46407C10.6382 8.10524 11.0652 5.56576 12.6627 3.95903C13.6686 2.94759 15.0081 2.44801 16.6403 2.47495C19.8561 2.52741 21.9183 4.17314 23.0822 5.54461C24.0851 6.72632 24.6281 7.91678 24.8449 8.55886C23.215 8.39355 22.1065 8.71435 21.5446 9.51547C20.3221 11.2581 22.2134 14.6403 23.1223 16.2658C23.2891 16.5637 23.4329 16.8211 23.4782 16.9306C23.7742 17.6459 24.1574 18.1235 24.4371 18.4721C24.5229 18.5789 24.6061 18.6825 24.6694 18.773C24.1757 18.9149 23.2891 19.2428 23.3699 20.8818C23.3047 21.7042 22.8413 25.5545 22.6058 26.9149C22.295 28.7121 21.6318 29.3815 19.7671 29.7803V29.7802ZM27.8369 20.5713C27.3321 20.8049 26.4874 20.9801 25.685 21.0178C24.7986 21.0592 24.3474 20.9188 24.2413 20.8324C24.1915 19.8111 24.5727 19.7044 24.9761 19.5914C25.0395 19.5737 25.1014 19.5563 25.1611 19.5355C25.1982 19.5656 25.2388 19.5955 25.2834 19.6248C25.9958 20.0937 27.2664 20.1443 29.0602 19.775L29.0799 19.7711C28.8379 19.9967 28.4239 20.2994 27.8369 20.5713Z" fill="white"/>
</svg>
