<svg width="33" height="34" viewBox="0 0 33 34" fill="none" xmlns="http://www.w3.org/2000/svg">
<path d="M16.4079 19.7428C17.9312 19.7428 19.166 18.5148 19.166 17C19.166 15.4852 17.9312 14.2572 16.4079 14.2572C14.8846 14.2572 13.6497 15.4852 13.6497 17C13.6497 18.5148 14.8846 19.7428 16.4079 19.7428Z" fill="#61DAFB"/>
<path fill-rule="evenodd" clip-rule="evenodd" d="M3.4391 15.5568C2.81362 16.1183 2.60803 16.6079 2.60803 17C2.60803 17.3922 2.81362 17.8817 3.4391 18.4432C4.06415 19.0043 5.02505 19.5554 6.29777 20.0387C8.83619 21.0025 12.4104 21.6195 16.4079 21.6195C20.4054 21.6195 23.9795 21.0025 26.518 20.0387C27.7907 19.5554 28.7516 19.0043 29.3766 18.4432C30.0021 17.8817 30.2077 17.3922 30.2077 17C30.2077 16.6079 30.0021 16.1183 29.3766 15.5568C28.7516 14.9957 27.7907 14.4446 26.518 13.9613C23.9795 12.9975 20.4054 12.3806 16.4079 12.3806C12.4104 12.3806 8.83619 12.9975 6.29777 13.9613C5.02505 14.4446 4.06415 14.9957 3.4391 15.5568ZM5.58783 12.0916C8.4059 11.0216 12.2316 10.3806 16.4079 10.3806C20.5841 10.3806 24.4098 11.0216 27.2279 12.0916C28.6334 12.6252 29.8399 13.285 30.7127 14.0685C31.585 14.8516 32.2077 15.8404 32.2077 17C32.2077 18.1596 31.585 19.1484 30.7127 19.9315C29.8399 20.715 28.6334 21.3748 27.2279 21.9084C24.4098 22.9784 20.5841 23.6195 16.4079 23.6195C12.2316 23.6195 8.4059 22.9784 5.58783 21.9084C4.18231 21.3748 2.97583 20.715 2.10306 19.9315C1.23071 19.1484 0.608032 18.1596 0.608032 17C0.608032 15.8404 1.23071 14.8516 2.10306 14.0685C2.97583 13.285 4.18231 12.6252 5.58783 12.0916Z" fill="#61DAFB"/>
<path fill-rule="evenodd" clip-rule="evenodd" d="M11.1884 5.11164C10.3877 4.85404 9.85578 4.92046 9.51002 5.11898C9.16426 5.31749 8.84048 5.74234 8.66446 6.56072C8.48843 7.37915 8.48894 8.48149 8.70432 9.81835C9.13392 12.4849 10.3832 15.8702 12.3813 19.3118C14.3794 22.7535 16.7029 25.522 18.8103 27.2252C19.8669 28.0791 20.8266 28.6307 21.6273 28.8883C22.428 29.1459 22.9599 29.0795 23.3057 28.881C23.6514 28.6825 23.9752 28.2576 24.1512 27.4393C24.3273 26.6208 24.3268 25.5185 24.1114 24.1816C23.6818 21.5151 22.4325 18.1298 20.4344 14.6882C18.4363 11.2465 16.1128 8.47803 14.0054 6.77478C12.9489 5.92086 11.9891 5.36925 11.1884 5.11164ZM15.2661 5.22633C17.6081 7.11924 20.0801 10.0947 22.1689 13.6924C24.2576 17.29 25.6128 20.9067 26.0902 23.8701C26.3284 25.3483 26.357 26.718 26.111 27.8618C25.865 29.0056 25.3155 30.0333 24.3099 30.6106C23.3042 31.188 22.1346 31.1474 21.0154 30.7874C19.8963 30.4273 18.7178 29.7178 17.5496 28.7737C15.2076 26.8807 12.7356 23.9053 10.6468 20.3076C8.55813 16.71 7.20291 13.0933 6.72547 10.1299C6.48733 8.65173 6.45867 7.28203 6.70469 6.13822C6.95072 4.99434 7.50022 3.96672 8.50584 3.38935C9.51146 2.81198 10.6811 2.85256 11.8003 3.21261C12.9194 3.57264 14.0979 4.28217 15.2661 5.22633Z" fill="#61DAFB"/>
<path fill-rule="evenodd" clip-rule="evenodd" d="M24.1512 6.56072C23.9752 5.74235 23.6514 5.3175 23.3057 5.11898C22.9599 4.92047 22.428 4.85405 21.6273 5.11164C20.8266 5.36926 19.8669 5.92087 18.8103 6.77478C16.7029 8.47803 14.3794 11.2465 12.3813 14.6882C10.3832 18.1298 9.13392 21.5151 8.70432 24.1816C8.48894 25.5185 8.48843 26.6208 8.66446 27.4393C8.84048 28.2576 9.16426 28.6825 9.51002 28.881C9.85578 29.0795 10.3877 29.1459 11.1884 28.8883C11.9891 28.6307 12.9488 28.0791 14.0054 27.2252C16.1128 25.522 18.4363 22.7535 20.4344 19.3118C22.4325 15.8702 23.6818 12.4849 24.1114 9.81835C24.3268 8.48149 24.3273 7.37916 24.1512 6.56072ZM26.0902 10.1299C25.6128 13.0933 24.2576 16.71 22.1689 20.3076C20.0801 23.9053 17.6081 26.8807 15.2661 28.7737C14.0979 29.7178 12.9194 30.4273 11.8003 30.7874C10.6811 31.1474 9.51146 31.188 8.50584 30.6106C7.50022 30.0333 6.95072 29.0056 6.70469 27.8618C6.45867 26.718 6.48733 25.3483 6.72547 23.8701C7.20291 20.9067 8.55813 17.29 10.6468 13.6924C12.7356 10.0947 15.2076 7.11924 17.5496 5.22633C18.7178 4.28217 19.8963 3.57264 21.0154 3.21261C22.1346 2.85256 23.3042 2.81198 24.3099 3.38935C25.3155 3.96672 25.865 4.99434 26.111 6.13822C26.357 7.28203 26.3284 8.65173 26.0902 10.1299Z" fill="#61DAFB"/>
</svg>
