<svg width="63" height="51" viewBox="0 0 63 51" fill="none" xmlns="http://www.w3.org/2000/svg">
<path d="M24.132 21.8645L18.6439 30.4888L24.132 39.113" stroke="#9F01FF" stroke-width="1.5"/>
<path d="M39.668 21.8645L45.156 30.4888L39.668 39.113" stroke="#9F01FF" stroke-width="1.5"/>
<path d="M34.446 18.6101L28.8734 41.1661" stroke="#9F01FF" stroke-width="1.5"/>
<path d="M45.0874 49.4771C54.5097 49.4771 62.1481 41.8386 62.1481 32.4162C62.1481 23.4219 55.1881 16.0534 46.3603 15.4023C44.8882 7.4775 37.9383 1.47705 29.587 1.47705C20.8668 1.47705 13.6745 8.0195 12.6511 16.4636C6.22116 18.908 1.65173 25.1285 1.65173 32.4162C1.65173 41.8386 9.2901 49.4771 18.7124 49.4771C27.0541 49.4771 31.3773 49.4771 37.662 49.4771" stroke="#9F01FF" stroke-width="1.5"/>
</svg>
