<svg width="165" height="27" viewBox="0 0 165 27" fill="none" xmlns="http://www.w3.org/2000/svg">
<path d="M11.6995 10.486L15.2468 0.287598L18.8828 10.486H29.7908L21.0112 16.6938L24.1151 26.8924L15.2468 21.0393L6.55585 26.8924L9.65975 16.6938L0.968842 10.486H11.6995Z" fill="#04DA8D"/>
<path d="M15.2616 21.0187L20.9878 16.6939L17.4568 22.4946L15.2616 21.0187Z" fill="#126849"/>
<path d="M36.4352 21.8926V13.1653H39.8783C40.5374 13.1653 41.0999 13.2832 41.5658 13.519C42.0346 13.752 42.3911 14.0829 42.6354 14.5119C42.8826 14.938 43.0062 15.4395 43.0062 16.0162C43.0062 16.5957 42.8812 17.0943 42.6312 17.5119C42.3812 17.9267 42.019 18.2449 41.5445 18.4664C41.0729 18.688 40.5019 18.7988 39.8315 18.7988H37.5261V17.3159H39.5332C39.8854 17.3159 40.1781 17.2676 40.411 17.171C40.644 17.0744 40.8173 16.9295 40.9309 16.7363C41.0474 16.5431 41.1056 16.3031 41.1056 16.0162C41.1056 15.7264 41.0474 15.4821 40.9309 15.2832C40.8173 15.0843 40.6425 14.9338 40.4067 14.8315C40.1738 14.7264 39.8798 14.6738 39.5246 14.6738H38.2803V21.8926H36.4352ZM41.1482 17.921L43.3173 21.8926H41.2803L39.1582 17.921H41.1482ZM47.1536 22.0204C46.4803 22.0204 45.9007 21.8841 45.4149 21.6113C44.932 21.3358 44.5598 20.9466 44.2984 20.4437C44.0371 19.938 43.9064 19.34 43.9064 18.6497C43.9064 17.9764 44.0371 17.3855 44.2984 16.877C44.5598 16.3684 44.9277 15.9721 45.4021 15.688C45.8794 15.4039 46.4391 15.2619 47.0811 15.2619C47.5129 15.2619 47.9149 15.3315 48.2871 15.4707C48.6621 15.6071 48.9888 15.813 49.2672 16.0886C49.5484 16.3642 49.7672 16.7108 49.9234 17.1284C50.0797 17.5431 50.1578 18.0289 50.1578 18.5858V19.0843H44.6308V17.9593H48.449C48.449 17.698 48.3922 17.4664 48.2786 17.2647C48.1649 17.063 48.0072 16.9054 47.8055 16.7917C47.6067 16.6752 47.3751 16.617 47.1109 16.617C46.8354 16.617 46.5911 16.6809 46.378 16.8088C46.1678 16.9338 46.003 17.1028 45.8837 17.3159C45.7643 17.5261 45.7033 17.7605 45.7004 18.019V19.0886C45.7004 19.4125 45.7601 19.6923 45.8794 19.9281C46.0016 20.1639 46.1734 20.3457 46.395 20.4735C46.6166 20.6014 46.8794 20.6653 47.1834 20.6653C47.3851 20.6653 47.5697 20.6369 47.7374 20.5801C47.905 20.5233 48.0484 20.438 48.1678 20.3244C48.2871 20.2108 48.378 20.0716 48.4405 19.9068L50.1195 20.0176C50.0342 20.421 49.8595 20.7733 49.5953 21.0744C49.334 21.3727 48.9959 21.6056 48.5811 21.7733C48.1692 21.938 47.6933 22.0204 47.1536 22.0204ZM57.269 15.3471L54.9806 21.8926H52.9352L50.6468 15.3471H52.5644L53.9238 20.0304H53.992L55.3471 15.3471H57.269ZM58.1979 21.8926V15.3471H60.0133V21.8926H58.1979ZM59.1099 14.5034C58.84 14.5034 58.6085 14.4139 58.4153 14.2349C58.2249 14.0531 58.1298 13.8358 58.1298 13.5829C58.1298 13.3329 58.2249 13.1184 58.4153 12.9395C58.6085 12.7576 58.84 12.6667 59.1099 12.6667C59.3798 12.6667 59.6099 12.7576 59.8002 12.9395C59.9934 13.1184 60.09 13.3329 60.09 13.5829C60.09 13.8358 59.9934 14.0531 59.8002 14.2349C59.6099 14.4139 59.3798 14.5034 59.1099 14.5034ZM64.4504 22.0204C63.7771 22.0204 63.1976 21.8841 62.7118 21.6113C62.2288 21.3358 61.8567 20.9466 61.5953 20.4437C61.334 19.938 61.2033 19.34 61.2033 18.6497C61.2033 17.9764 61.334 17.3855 61.5953 16.877C61.8567 16.3684 62.2246 15.9721 62.699 15.688C63.1763 15.4039 63.7359 15.2619 64.378 15.2619C64.8098 15.2619 65.2118 15.3315 65.584 15.4707C65.959 15.6071 66.2857 15.813 66.5641 16.0886C66.8453 16.3642 67.0641 16.7108 67.2203 17.1284C67.3766 17.5431 67.4547 18.0289 67.4547 18.5858V19.0843H61.9277V17.9593H65.7459C65.7459 17.698 65.6891 17.4664 65.5754 17.2647C65.4618 17.063 65.3041 16.9054 65.1024 16.7917C64.9036 16.6752 64.672 16.617 64.4078 16.617C64.1322 16.617 63.8879 16.6809 63.6749 16.8088C63.4646 16.9338 63.2999 17.1028 63.1805 17.3159C63.0612 17.5261 63.0001 17.7605 62.9973 18.019V19.0886C62.9973 19.4125 63.057 19.6923 63.1763 19.9281C63.2984 20.1639 63.4703 20.3457 63.6919 20.4735C63.9135 20.6014 64.1763 20.6653 64.4803 20.6653C64.682 20.6653 64.8666 20.6369 65.0342 20.5801C65.2018 20.5233 65.3453 20.438 65.4646 20.3244C65.584 20.2108 65.6749 20.0716 65.7374 19.9068L67.4163 20.0176C67.3311 20.421 67.1564 20.7733 66.8922 21.0744C66.6308 21.3727 66.2928 21.6056 65.878 21.7733C65.4661 21.938 64.9902 22.0204 64.4504 22.0204ZM69.8837 21.8926L68.1024 15.3471H69.9391L70.9533 19.7449H71.0129L72.0697 15.3471H73.8723L74.9462 19.7193H75.0016L75.9987 15.3471H77.8311L76.0541 21.8926H74.1322L73.0072 17.7761H72.9263L71.8013 21.8926H69.8837ZM84.2455 17.2136L82.5836 17.3159C82.5552 17.1738 82.4941 17.046 82.4004 16.9324C82.3066 16.8159 82.183 16.7235 82.0296 16.6554C81.8791 16.5843 81.6987 16.5488 81.4884 16.5488C81.2072 16.5488 80.97 16.6085 80.7768 16.7278C80.5836 16.8443 80.487 17.0005 80.487 17.1966C80.487 17.3528 80.5495 17.4849 80.6745 17.5929C80.7995 17.7008 81.014 17.7875 81.318 17.8528L82.5026 18.0914C83.139 18.2221 83.6134 18.4324 83.9259 18.7221C84.2384 19.0119 84.3947 19.3926 84.3947 19.8642C84.3947 20.2931 84.2683 20.6696 84.0154 20.9934C83.7654 21.3173 83.4217 21.5701 82.9842 21.752C82.5495 21.9309 82.0481 22.0204 81.4799 22.0204C80.6134 22.0204 79.9231 21.84 79.4089 21.4792C78.8975 21.1156 78.5978 20.6213 78.5097 19.9963L80.2952 19.9025C80.3492 20.1667 80.4799 20.3684 80.6873 20.5076C80.8947 20.644 81.1603 20.7122 81.4842 20.7122C81.8023 20.7122 82.058 20.6511 82.2512 20.5289C82.4472 20.4039 82.5467 20.2434 82.5495 20.0474C82.5467 19.8826 82.4771 19.7477 82.3407 19.6426C82.2043 19.5346 81.9941 19.4522 81.71 19.3954L80.5765 19.1696C79.9373 19.0417 79.4614 18.8201 79.1489 18.5048C78.8393 18.1895 78.6844 17.7875 78.6844 17.2988C78.6844 16.8784 78.7981 16.5162 79.0254 16.2122C79.2555 15.9082 79.5779 15.6738 79.9927 15.5091C80.4103 15.3443 80.8989 15.2619 81.4586 15.2619C82.2853 15.2619 82.9359 15.4366 83.4103 15.786C83.8876 16.1355 84.166 16.6113 84.2455 17.2136ZM96.3691 17.5289C96.3691 18.4806 96.1887 19.2903 95.8279 19.9579C95.47 20.6255 94.9813 21.1355 94.362 21.4877C93.7455 21.8372 93.0523 22.0119 92.2825 22.0119C91.5069 22.0119 90.8109 21.8358 90.1944 21.4835C89.5779 21.1312 89.0907 20.6213 88.7327 19.9537C88.3748 19.286 88.1958 18.4778 88.1958 17.5289C88.1958 16.5772 88.3748 15.7676 88.7327 15.1C89.0907 14.4324 89.5779 13.9238 90.1944 13.5744C90.8109 13.2221 91.5069 13.046 92.2825 13.046C93.0523 13.046 93.7455 13.2221 94.362 13.5744C94.9813 13.9238 95.47 14.4324 95.8279 15.1C96.1887 15.7676 96.3691 16.5772 96.3691 17.5289ZM94.4984 17.5289C94.4984 16.9125 94.406 16.3926 94.2214 15.9693C94.0396 15.546 93.7825 15.225 93.4501 15.0062C93.1177 14.7875 92.7285 14.6781 92.2825 14.6781C91.8364 14.6781 91.4472 14.7875 91.1148 15.0062C90.7825 15.225 90.5239 15.546 90.3393 15.9693C90.1575 16.3926 90.0666 16.9125 90.0666 17.5289C90.0666 18.1454 90.1575 18.6653 90.3393 19.0886C90.5239 19.5119 90.7825 19.8329 91.1148 20.0517C91.4472 20.2704 91.8364 20.3798 92.2825 20.3798C92.7285 20.3798 93.1177 20.2704 93.4501 20.0517C93.7825 19.8329 94.0396 19.5119 94.2214 19.0886C94.406 18.6653 94.4984 18.1454 94.4984 17.5289ZM99.5172 18.1085V21.8926H97.7018V15.3471H99.432V16.502H99.5087C99.6536 16.1213 99.8965 15.8201 100.237 15.5985C100.578 15.3741 100.992 15.2619 101.477 15.2619C101.932 15.2619 102.328 15.3613 102.666 15.5602C103.004 15.7591 103.267 16.0431 103.455 16.4125C103.642 16.7789 103.736 17.2164 103.736 17.725V21.8926H101.921V18.0488C101.923 17.6483 101.821 17.3358 101.614 17.1113C101.406 16.8841 101.121 16.7704 100.757 16.7704C100.513 16.7704 100.297 16.823 100.11 16.9281C99.9249 17.0332 99.78 17.1866 99.6749 17.3883C99.5726 17.5872 99.52 17.8272 99.5172 18.1085ZM107.646 14.6866V13.1653H114.813V14.6866H112.141V21.8926H110.318V14.6866H107.646ZM115.28 21.8926V15.3471H117.04V16.4892H117.108C117.227 16.0829 117.428 15.7761 117.709 15.5687C117.99 15.3585 118.314 15.2534 118.681 15.2534C118.771 15.2534 118.869 15.2591 118.975 15.2704C119.08 15.2818 119.172 15.2974 119.252 15.3173V16.9281C119.166 16.9025 119.048 16.8798 118.898 16.8599C118.747 16.84 118.61 16.8301 118.485 16.8301C118.217 16.8301 117.979 16.8883 117.769 17.0048C117.561 17.1184 117.396 17.2775 117.274 17.4821C117.155 17.6866 117.095 17.9224 117.095 18.1895V21.8926H115.28ZM124.388 19.1056V15.3471H126.203V21.8926H124.46V20.7037H124.392C124.244 21.0872 123.998 21.3954 123.655 21.6284C123.314 21.8613 122.898 21.9778 122.406 21.9778C121.969 21.9778 121.584 21.8784 121.251 21.6795C120.919 21.4806 120.659 21.198 120.471 20.8315C120.287 20.465 120.193 20.0261 120.19 19.5147V15.3471H122.005V19.1909C122.008 19.5772 122.112 19.8826 122.317 20.1071C122.521 20.3315 122.795 20.4437 123.139 20.4437C123.358 20.4437 123.562 20.394 123.753 20.2946C123.943 20.1923 124.096 20.0417 124.213 19.8429C124.332 19.644 124.39 19.3983 124.388 19.1056ZM133.101 17.2136L131.439 17.3159C131.411 17.1738 131.35 17.046 131.256 16.9324C131.162 16.8159 131.038 16.7235 130.885 16.6554C130.735 16.5843 130.554 16.5488 130.344 16.5488C130.063 16.5488 129.825 16.6085 129.632 16.7278C129.439 16.8443 129.342 17.0005 129.342 17.1966C129.342 17.3528 129.405 17.4849 129.53 17.5929C129.655 17.7008 129.869 17.7875 130.173 17.8528L131.358 18.0914C131.994 18.2221 132.469 18.4324 132.781 18.7221C133.094 19.0119 133.25 19.3926 133.25 19.8642C133.25 20.2931 133.124 20.6696 132.871 20.9934C132.621 21.3173 132.277 21.5701 131.84 21.752C131.405 21.9309 130.904 22.0204 130.335 22.0204C129.469 22.0204 128.779 21.84 128.264 21.4792C127.753 21.1156 127.453 20.6213 127.365 19.9963L129.151 19.9025C129.205 20.1667 129.335 20.3684 129.543 20.5076C129.75 20.644 130.016 20.7122 130.34 20.7122C130.658 20.7122 130.913 20.6511 131.107 20.5289C131.303 20.4039 131.402 20.2434 131.405 20.0474C131.402 19.8826 131.333 19.7477 131.196 19.6426C131.06 19.5346 130.85 19.4522 130.565 19.3954L129.432 19.1696C128.793 19.0417 128.317 18.8201 128.004 18.5048C127.695 18.1895 127.54 17.7875 127.54 17.2988C127.54 16.8784 127.654 16.5162 127.881 16.2122C128.111 15.9082 128.433 15.6738 128.848 15.5091C129.266 15.3443 129.754 15.2619 130.314 15.2619C131.141 15.2619 131.791 15.4366 132.266 15.786C132.743 16.1355 133.021 16.6113 133.101 17.2136ZM137.875 15.3471V16.7108H133.933V15.3471H137.875ZM134.828 13.7789H136.643V19.8812C136.643 20.0488 136.669 20.1795 136.72 20.2733C136.771 20.3642 136.842 20.4281 136.933 20.465C137.027 20.502 137.135 20.5204 137.257 20.5204C137.342 20.5204 137.427 20.5133 137.513 20.4991C137.598 20.4821 137.663 20.4693 137.709 20.4608L137.994 21.8116C137.903 21.84 137.775 21.8727 137.611 21.9096C137.446 21.9494 137.246 21.9735 137.01 21.9821C136.572 21.9991 136.189 21.9409 135.859 21.8074C135.532 21.6738 135.278 21.4664 135.096 21.1852C134.915 20.9039 134.825 20.5488 134.828 20.1199V13.7789ZM139.057 24.3471V15.3471H140.847V16.4466H140.928C141.008 16.2704 141.123 16.0914 141.273 15.9096C141.427 15.725 141.625 15.5716 141.87 15.4494C142.117 15.3244 142.424 15.2619 142.79 15.2619C143.268 15.2619 143.708 15.3869 144.111 15.6369C144.515 15.8841 144.837 16.2576 145.079 16.7576C145.32 17.2548 145.441 17.8784 145.441 18.6284C145.441 19.3585 145.323 19.975 145.087 20.4778C144.854 20.9778 144.536 21.3571 144.133 21.6156C143.732 21.8713 143.283 21.9991 142.786 21.9991C142.434 21.9991 142.134 21.9409 141.887 21.8244C141.643 21.7079 141.442 21.5616 141.286 21.3855C141.13 21.2065 141.01 21.0261 140.928 20.8443H140.873V24.3471H139.057ZM140.834 18.6199C140.834 19.0091 140.888 19.3485 140.996 19.6383C141.104 19.9281 141.26 20.1539 141.465 20.3159C141.67 20.475 141.918 20.5545 142.211 20.5545C142.506 20.5545 142.756 20.4735 142.961 20.3116C143.165 20.1468 143.32 19.9196 143.425 19.6298C143.533 19.3372 143.587 19.0005 143.587 18.6199C143.587 18.242 143.535 17.9096 143.429 17.6227C143.324 17.3358 143.17 17.1113 142.965 16.9494C142.76 16.7875 142.509 16.7065 142.211 16.7065C141.915 16.7065 141.665 16.7846 141.461 16.9409C141.259 17.0971 141.104 17.3187 140.996 17.6056C140.888 17.8926 140.834 18.2306 140.834 18.6199ZM146.651 21.8926V15.3471H148.466V21.8926H146.651ZM147.563 14.5034C147.293 14.5034 147.062 14.4139 146.868 14.2349C146.678 14.0531 146.583 13.8358 146.583 13.5829C146.583 13.3329 146.678 13.1184 146.868 12.9395C147.062 12.7576 147.293 12.6667 147.563 12.6667C147.833 12.6667 148.063 12.7576 148.253 12.9395C148.447 13.1184 148.543 13.3329 148.543 13.5829C148.543 13.8358 148.447 14.0531 148.253 14.2349C148.063 14.4139 147.833 14.5034 147.563 14.5034ZM151.736 13.1653V21.8926H149.921V13.1653H151.736ZM156.148 22.0204C155.486 22.0204 154.913 21.8798 154.43 21.5985C153.95 21.3145 153.579 20.9196 153.318 20.4139C153.057 19.9054 152.926 19.3159 152.926 18.6454C152.926 17.9693 153.057 17.3784 153.318 16.8727C153.579 16.3642 153.95 15.9693 154.43 15.688C154.913 15.4039 155.486 15.2619 156.148 15.2619C156.809 15.2619 157.38 15.4039 157.861 15.688C158.344 15.9693 158.716 16.3642 158.977 16.8727C159.238 17.3784 159.369 17.9693 159.369 18.6454C159.369 19.3159 159.238 19.9054 158.977 20.4139C158.716 20.9196 158.344 21.3145 157.861 21.5985C157.38 21.8798 156.809 22.0204 156.148 22.0204ZM156.156 20.6142C156.457 20.6142 156.709 20.5289 156.91 20.3585C157.112 20.1852 157.264 19.9494 157.366 19.6511C157.471 19.3528 157.524 19.0133 157.524 18.6326C157.524 18.252 157.471 17.9125 157.366 17.6142C157.264 17.3159 157.112 17.0801 156.91 16.9068C156.709 16.7335 156.457 16.6468 156.156 16.6468C155.852 16.6468 155.596 16.7335 155.389 16.9068C155.184 17.0801 155.03 17.3159 154.925 17.6142C154.822 17.9125 154.771 18.252 154.771 18.6326C154.771 19.0133 154.822 19.3528 154.925 19.6511C155.03 19.9494 155.184 20.1852 155.389 20.3585C155.596 20.5289 155.852 20.6142 156.156 20.6142ZM164.031 15.3471V16.7108H160.089V15.3471H164.031ZM160.984 13.7789H162.8V19.8812C162.8 20.0488 162.825 20.1795 162.876 20.2733C162.927 20.3642 162.998 20.4281 163.089 20.465C163.183 20.502 163.291 20.5204 163.413 20.5204C163.498 20.5204 163.584 20.5133 163.669 20.4991C163.754 20.4821 163.819 20.4693 163.865 20.4608L164.15 21.8116C164.059 21.84 163.932 21.8727 163.767 21.9096C163.602 21.9494 163.402 21.9735 163.166 21.9821C162.728 21.9991 162.345 21.9409 162.015 21.8074C161.689 21.6738 161.434 21.4664 161.253 21.1852C161.071 20.9039 160.981 20.5488 160.984 20.1199V13.7789Z" fill="black"/>
</svg>
