<svg width="43" height="43" viewBox="0 0 43 43" fill="none" xmlns="http://www.w3.org/2000/svg">
<rect x="1.53589" y="1.37744" width="40" height="40" rx="20" stroke="#F0544F" stroke-width="2"/>
<path d="M23.6865 18.5593V19.8377H18.5984V18.5593H23.6865ZM20.0813 16.207H21.5899V25.5649C21.5899 25.9911 21.6517 26.3107 21.7752 26.5237C21.9031 26.7326 22.065 26.8732 22.261 26.9456C22.4613 27.0138 22.6723 27.0479 22.8938 27.0479C23.06 27.0479 23.1964 27.0394 23.3029 27.0223C23.4095 27.001 23.4947 26.984 23.5586 26.9712L23.8654 28.3263C23.7632 28.3647 23.6204 28.403 23.4372 28.4414C23.2539 28.484 23.0217 28.5053 22.7404 28.5053C22.3143 28.5053 21.8967 28.4137 21.4876 28.2304C21.0828 28.0472 20.7461 27.7681 20.4776 27.3931C20.2134 27.0181 20.0813 26.5451 20.0813 25.974V16.207Z" fill="#F0544F"/>
</svg>
