<svg width="32" height="32" viewBox="0 0 32 32" fill="none" xmlns="http://www.w3.org/2000/svg">
<path d="M0.444458 0.444445H31.5556V31.5556H0.444458V0.444445Z" fill="#017ACB"/>
<path d="M15.3827 11.9653H16.875V14.5417H12.8403V26.0042L12.7334 26.0333C12.5875 26.0722 10.6674 26.0722 10.2542 26.0285L9.92365 25.9993V14.5417H5.88892V11.9653L7.16739 11.9507C7.86739 11.941 9.66601 11.941 11.1632 11.9507C12.6605 11.9604 14.5563 11.9653 15.3827 11.9653ZM26.7723 24.7889C26.1792 25.416 25.5424 25.766 24.4827 26.0528C24.0209 26.1792 23.9431 26.184 22.9028 26.1792C21.8626 26.1743 21.7799 26.1743 21.2744 26.0431C19.9667 25.7076 18.9119 25.0514 18.1924 24.1229C17.9882 23.8604 17.6528 23.316 17.6528 23.2479C17.6528 23.2285 17.7014 23.1847 17.7646 23.1556C17.8278 23.1264 17.9591 23.0437 18.066 22.9806C18.173 22.9174 18.3674 22.8007 18.4987 22.7326C18.6299 22.6646 19.0091 22.441 19.3396 22.2417C19.6702 22.0424 19.9716 21.8819 20.0056 21.8819C20.0396 21.8819 20.1028 21.95 20.1514 22.0326C20.4431 22.5236 21.1237 23.1507 21.6049 23.3646C21.9014 23.491 22.5577 23.6319 22.8737 23.6319C23.1653 23.6319 23.7001 23.5056 23.9869 23.3743C24.2931 23.2333 24.4487 23.0924 24.6334 22.8104C24.7598 22.6111 24.7744 22.5576 24.7695 22.1785C24.7695 21.8285 24.7501 21.7312 24.6528 21.5708C24.3806 21.1236 24.0112 20.8903 22.5139 20.2292C20.9681 19.5437 20.273 19.1354 19.7091 18.5861C19.291 18.1778 19.2084 18.066 18.9459 17.5556C18.6056 16.8993 18.5619 16.6854 18.557 15.7083C18.5521 15.0229 18.5667 14.7993 18.6396 14.566C18.7417 14.216 19.0723 13.5403 19.223 13.3701C19.5341 13.0056 19.6459 12.8937 19.8646 12.7139C20.5257 12.1694 21.5563 11.8097 22.5431 11.7757C22.6549 11.7757 23.0244 11.7951 23.3695 11.8194C24.3612 11.9021 25.0369 12.1451 25.6883 12.6653C26.1792 13.0542 26.923 13.9681 26.8501 14.0896C26.8015 14.1625 24.8619 15.4556 24.7355 15.4944C24.6577 15.5187 24.6042 15.4896 24.4973 15.3632C23.8362 14.5708 23.5688 14.4007 22.9271 14.3618C22.4702 14.3326 22.2271 14.3861 21.9209 14.5903C21.6001 14.8042 21.4445 15.1299 21.4445 15.5819C21.4494 16.2431 21.7021 16.5542 22.6355 17.016C23.2383 17.3125 23.7535 17.5556 23.7924 17.5556C23.8508 17.5556 25.1001 18.1778 25.4258 18.3722C26.9424 19.2618 27.5598 20.1757 27.7202 21.7507C27.8369 22.9368 27.5015 24.0208 26.7723 24.7889Z" fill="white"/>
</svg>
