<svg width="28" height="32" viewBox="0 0 28 32" fill="none" xmlns="http://www.w3.org/2000/svg">
<path d="M14 0.444458L0.251497 8.22224V23.7778L14 31.5556L27.7485 23.7778V8.22224L14 0.444458Z" fill="white"/>
<path d="M2.70664 23.2411L13.5463 29.3726V24.597L6.79256 20.8819L2.70664 23.2411ZM1.96516 22.5696V9.74667L5.93182 12.0359V20.2778L1.96516 22.5696ZM25.3374 23.2411L14.4977 29.3726V24.597L21.2515 20.8819L25.3374 23.2411V23.2411ZM26.0789 22.5696V9.74667L22.1122 12.0359V20.2778L26.0789 22.5696V22.5696ZM25.6148 8.91704L14.4977 2.62741V7.24482L21.6196 11.1622L21.674 11.1933L25.6148 8.91704V8.91704ZM2.42923 8.91704L13.5463 2.62741V7.24482L6.42441 11.1622L6.36997 11.1933L2.42923 8.91704V8.91704Z" fill="#8ED6FB"/>
<path d="M14.4978 23.5108L21.1608 19.8474V12.5882L14.4978 16.4356V23.5108ZM13.5463 23.5108L6.88336 19.8474V12.5882L13.5463 16.4356V23.5108ZM20.7097 11.7482L14.0208 8.06927L7.33188 11.7482L14.0208 15.6111L20.7097 11.7482" fill="#1C78C0"/>
</svg>
